<svg width="216" height="48" viewBox="0 0 216 48" fill="none" xmlns="http://www.w3.org/2000/svg">
<g clip-path="url(#clip0_2918_1478)">
<path d="M59.886 16.4951C59.886 14.8722 59.3279 14.0822 58.2202 14.0822C57.9798 14.0822 57.7479 14.0822 57.5504 14.1595C57.2756 14.2024 56.9579 14.2368 56.6832 14.2368C56.4084 14.2368 56.168 14.1165 55.9705 13.9191C55.773 13.7216 55.6527 13.4468 55.6957 13.1634C55.6957 12.4078 56.1336 12.0128 57.0438 12.0128C57.0867 12.0128 57.2413 12.0128 57.5161 12.0557C60.7619 12.2532 62.2646 12.3734 62.0671 12.3734H62.3848L70.1816 12.133C70.3361 12.133 70.8942 12.0901 71.8817 12.0557C72.2424 12.0128 72.5515 12.0128 72.8349 12.0128C73.9426 12.0128 74.535 12.528 74.535 13.5155C74.535 13.67 74.4921 14.2282 74.4578 15.1813C74.4148 15.894 74.3805 16.5294 74.3805 17.1219C74.3805 17.6371 74.3805 18.1867 74.4234 18.7019C74.5007 19.1742 74.5007 19.655 74.5436 20.0843C74.5436 20.9173 74.1486 21.3123 73.3587 21.3123C72.5687 21.3123 72.1737 20.7198 72.1737 19.5691V17.869C72.1737 16.0486 71.7787 14.9409 71.0231 14.6232C70.4649 14.3827 69.0052 14.2711 66.6696 14.2711C65.7594 14.2282 64.8492 14.2711 63.939 14.3913C63.0288 14.6318 62.5565 15.3015 62.5565 16.3663V19.6121C62.5565 20.4793 62.754 20.9945 63.149 21.1148C63.3894 21.1577 63.6642 21.192 63.9046 21.192H65.2098C66.5579 21.192 67.2277 20.7198 67.2277 19.8096C67.2277 19.4489 67.1848 19.1398 67.1504 18.8221C67.1075 18.4615 67.0731 18.0665 67.0731 17.7144C67.0731 16.8471 67.4681 16.4092 68.2238 16.4092C68.9794 16.4092 69.3744 16.8815 69.3744 17.7917C69.3744 17.9462 69.2971 18.6246 69.1769 19.8096C69.0567 20.6768 69.0223 21.5527 68.9794 22.4629C68.9794 22.9008 69.0223 23.6479 69.0996 24.7555C69.1426 24.9101 69.1769 25.3137 69.2542 25.9062C69.2971 26.3012 69.3315 26.6532 69.3315 27.0568C69.4087 27.6149 69.0138 28.1645 68.4642 28.2418C68.3869 28.2418 68.2667 28.2418 68.1894 28.2418C67.4338 28.2418 67.0388 27.7695 67.0388 26.8593C67.0388 26.5072 67.0817 26.1466 67.1161 25.8289C67.159 25.5112 67.1934 25.1162 67.1934 24.7985C67.1934 23.8453 66.5579 23.416 65.33 23.416H63.8617C63.2263 23.416 62.8313 23.5362 62.7111 23.7337C62.5136 24.1716 62.4706 24.6439 62.5136 25.1162V27.1341C62.5136 27.4861 62.5136 27.967 62.5565 28.5166C62.5994 29.2293 62.5994 29.7015 62.5994 29.942C62.6424 30.8092 62.7969 31.3674 63.1146 31.5648C63.3551 31.7194 63.9046 31.8053 64.8148 31.8053H69.2456C70.5164 31.8053 71.4266 31.6078 71.8989 31.2471C72.3712 30.8521 72.6116 30.1394 72.6116 29.109C72.6116 28.7913 72.6116 28.3191 72.5687 27.6407C72.5257 27.0053 72.5257 26.533 72.5257 26.1724C72.5257 25.1849 72.9207 24.704 73.6764 24.704C74.5093 24.704 74.9043 25.2192 74.9043 26.2067C74.9043 26.6017 74.9043 27.1942 74.8613 27.9842C74.8184 28.7742 74.8184 29.3666 74.8184 29.7616C74.8184 30.0793 74.8184 30.5173 74.8613 31.1098C74.9043 31.7022 74.9043 32.1402 74.9043 32.4579C74.9043 33.4883 74.3891 34.0035 73.4016 34.0035C73.1612 34.0035 72.7662 33.9606 72.251 33.9262C71.9762 33.8833 71.4953 33.8833 70.8256 33.8833C70.9801 33.8833 70.1129 33.8403 68.2925 33.806C66.4291 33.7631 64.8492 33.7287 63.501 33.7287C61.4402 33.7287 59.4653 33.806 57.5247 33.9691C57.4474 33.9691 57.3272 33.9691 57.2499 34.0121H57.0524C56.1422 34.0121 55.6699 33.6171 55.6699 32.8271C55.6699 32.1144 55.9876 31.7967 56.6574 31.7967C56.7776 31.7967 57.0524 31.8396 57.5247 31.874C57.7651 31.9513 57.9626 31.9513 58.1944 31.9513C59.3021 31.9513 59.8603 31.1183 59.8603 29.4954L59.886 16.4951ZM87.1919 29.401V27.3058C87.2349 26.4386 87.5869 25.9577 88.3769 25.9577C89.1325 25.9577 89.5275 26.4729 89.5275 27.4604C89.5275 29.8303 89.2098 31.4532 88.6173 32.4064C87.7844 33.6686 86.4363 34.304 84.5816 34.304C82.8384 34.304 81.6105 33.7459 80.8978 32.6382C80.3397 31.8482 80.1078 30.4572 80.1078 28.5251V20.7284C80.1078 20.2561 79.9104 20.0586 79.4724 20.0586H78.4077C78.09 20.0586 77.7722 19.9384 77.5404 19.7065C77.3 19.509 77.1798 19.1913 77.1798 18.8736C77.1798 18.5559 77.3 18.2811 77.5404 18.0407C77.7379 17.8003 78.0127 17.6801 78.296 17.6801H79.5583C79.9104 17.6801 80.1164 17.4826 80.1164 17.0446V13.6786C80.1164 12.8457 80.5544 12.4507 81.3787 12.4507C82.1687 12.4507 82.5637 12.8457 82.5637 13.6786V17.1648C82.5637 17.4826 82.7612 17.6371 83.1561 17.6371H86.7197C87.5526 17.6371 87.9476 18.0321 87.9476 18.7877C87.9476 19.5777 87.5096 19.9727 86.5994 19.9727H83.0359C82.7182 19.9727 82.5637 20.2132 82.5637 20.6425V28.714C82.5637 31.0067 83.3193 32.1144 84.8563 32.1144C86.3247 32.1659 87.1576 31.2214 87.1919 29.401ZM96.2595 12.8972L96.1393 19.2257C96.852 18.513 97.642 17.9634 98.5179 17.5255C99.3078 17.2078 100.184 17.0532 101.051 17.0532C102.914 17.0532 104.417 17.5684 105.559 18.6332C106.71 19.7409 107.336 21.2436 107.259 22.8321V28.2504C107.259 29.5212 107.259 30.2339 107.302 30.3455C107.379 31.4103 107.654 31.9684 108.135 31.9684C108.41 31.9684 108.65 31.8911 108.891 31.7709C109.045 31.728 109.251 31.728 109.406 31.728C110.196 31.728 110.591 32.0801 110.591 32.8357C110.591 33.5913 110.076 33.9434 109.045 33.9434C108.65 33.9434 108.212 33.9004 107.817 33.8661C107.062 33.7888 106.349 33.7115 105.602 33.7115C105.164 33.7115 104.735 33.7115 104.297 33.7888C103.387 33.909 102.828 33.9863 102.597 33.9863C102.236 33.9863 101.884 33.8661 101.609 33.6257C101.369 33.4282 101.214 33.1105 101.214 32.7584C101.214 32.4836 101.334 32.2003 101.575 32.0457C101.815 31.8482 102.09 31.728 102.365 31.7709C102.64 31.7709 102.957 31.8482 103.198 31.9255C103.395 32.0028 103.55 32.0028 103.756 32.0028C104.391 32.0028 104.743 31.2901 104.743 29.9076C104.743 29.6328 104.786 29.152 104.821 28.362V25.1935C104.821 22.9781 104.58 21.5098 104.151 20.7198C103.515 19.5691 102.408 19.0196 100.828 19.0196C99.1275 19.0196 97.8567 19.6121 97.0667 20.7627C96.5086 21.5527 96.2338 22.8579 96.2338 24.6439V26.9795C96.2338 27.2199 96.1565 27.4174 96.1136 27.6149V28.2504C96.1136 29.4783 96.1136 30.191 96.1565 30.3885C96.2767 31.4532 96.5944 31.9684 97.144 31.9684C97.3844 31.9684 97.6592 31.8911 97.8996 31.8139C98.1401 31.7366 98.3719 31.6937 98.6123 31.6593C99.325 31.6593 99.6771 32.0114 99.6771 32.6897C99.6771 33.4797 99.2048 33.8747 98.2517 33.8747C97.934 33.8747 97.496 33.8318 96.8692 33.7974C96.1565 33.7201 95.4438 33.6772 94.7311 33.6772C94.3705 33.6772 93.8638 33.7201 93.1855 33.7545C92.3182 33.8318 91.7601 33.8747 91.5197 33.8747C90.6095 33.8747 90.1715 33.4797 90.1715 32.6468C90.1715 31.977 90.6095 31.6593 91.4338 31.6593C91.6313 31.6593 91.8717 31.6593 92.0692 31.7366C92.344 31.8139 92.5844 31.8568 92.8592 31.8568C93.2198 31.8568 93.4517 31.5391 93.5719 30.8693C93.7265 29.5212 93.8123 28.1817 93.7694 26.8335V21.0117C93.7694 17.7659 93.6921 15.7051 93.5719 14.8378C93.4517 13.9706 93.134 13.5756 92.6617 13.5756C92.4213 13.5756 92.1894 13.6185 91.9919 13.6529C91.7515 13.6958 91.5196 13.7301 91.2792 13.7301C90.5236 13.7301 90.1715 13.3695 90.1715 12.6997C90.1715 12.382 90.3261 12.1072 90.5665 11.9098C90.8413 11.6693 91.159 11.592 91.5197 11.592C91.6399 11.592 91.9919 11.635 92.6273 11.6693C93.0653 11.7123 93.4946 11.7466 93.9755 11.7466C94.2502 11.7466 94.5336 11.7037 94.8084 11.6693C95.0488 11.6264 95.3236 11.592 95.5554 11.592C96.0706 11.592 96.3111 11.9527 96.3111 12.6568L96.2595 12.8972ZM126.7 24.2919C126.743 24.8071 126.7 25.3223 126.545 25.7945C126.425 25.992 126.107 26.0693 125.592 26.0693H115.219C115.022 26.0264 114.824 26.0693 114.661 26.1895C114.584 26.3098 114.506 26.43 114.541 26.5845C114.498 28.0872 115.013 29.5555 116.009 30.6632C116.919 31.728 118.267 32.3291 119.65 32.2861C120.603 32.2861 121.513 32.0114 122.26 31.4962C123.016 31.0582 123.565 30.3455 123.806 29.5212L124.081 28.5681C124.201 28.0958 124.639 27.7352 125.145 27.7781C125.935 27.7781 126.373 28.1731 126.373 29.006C126.373 30.4314 125.661 31.6593 124.235 32.767C122.853 33.8318 121.11 34.4328 119.367 34.3899C117.074 34.3899 115.288 33.6343 113.948 32.0972C112.6 30.5516 111.93 28.4908 111.93 25.9233C111.93 23.27 112.643 21.1319 114.068 19.4747C115.451 17.8518 117.512 16.9416 119.65 17.0189C121.548 16.9759 123.368 17.6886 124.673 19.0797C126.021 20.4965 126.734 22.3513 126.7 24.2919ZM114.858 23.4589C114.858 23.7767 115.099 23.9312 115.571 23.9312H123.368C123.84 23.9312 124.038 23.7767 124.038 23.4589C124.038 22.3083 123.565 21.2436 122.733 20.4536C121.943 19.6207 120.835 19.1827 119.641 19.1827C118.413 19.1827 117.228 19.655 116.318 20.4879C115.374 21.3981 114.858 22.3942 114.858 23.4589ZM134.016 18.513V19.4232C135.003 17.9205 136.703 17.0103 138.524 17.0446C139.872 16.9674 141.211 17.4396 142.207 18.3069C143.16 19.1398 143.676 20.3677 143.633 21.5956C143.676 22.4285 143.435 23.2615 142.92 23.9312C142.482 24.5237 141.769 24.8414 141.022 24.8414C140.55 24.8414 140.112 24.6869 139.76 24.3691C139.442 24.0944 139.245 23.6994 139.245 23.2614C139.245 22.9008 139.399 22.5917 139.64 22.3513C139.88 22.0765 140.198 21.9563 140.55 21.9563C140.705 21.9563 140.825 21.9992 140.988 22.0335C141.108 21.7931 141.185 21.5613 141.185 21.3208C141.185 20.6854 140.868 20.0929 140.353 19.7409C139.76 19.303 139.047 19.0711 138.292 19.1055C136.592 19.1055 135.484 19.8611 134.891 21.3981C134.539 22.3513 134.376 23.7337 134.376 25.6314V27.7695C134.376 29.2378 134.376 30.0278 134.419 30.2253C134.539 31.4532 134.857 32.0886 135.45 32.0886C135.767 32.0886 136.042 32.0457 136.317 31.9684C136.514 31.9255 136.712 31.8911 136.952 31.8911C137.665 31.8911 138.017 32.2432 138.017 32.9216C138.017 33.6772 137.579 34.0292 136.669 34.0292H136.549C136.033 34.0292 135.561 33.9863 135.08 33.909C134.608 33.8318 134.093 33.7888 133.612 33.7888C132.745 33.7888 132.066 33.8318 131.551 33.8661L129.731 34.0207C128.863 34.0207 128.383 33.6257 128.383 32.87C128.383 32.2003 128.821 31.8826 129.645 31.8826C129.799 31.8826 129.963 31.8826 130.117 31.9255L130.589 32.0028C130.744 32.0457 130.907 32.0457 131.062 32.0801C131.62 32.0801 131.895 31.5648 131.929 30.5774V28.9115L131.852 21.5098C131.774 20.2475 131.457 19.5691 130.864 19.5691C130.624 19.5691 130.392 19.6121 130.151 19.6464C129.911 19.6894 129.679 19.7237 129.439 19.7237C128.726 19.7237 128.374 19.3631 128.374 18.6933C128.374 17.9377 128.846 17.5856 129.757 17.5856C130.074 17.5856 130.392 17.6285 130.744 17.6629C131.096 17.7058 131.379 17.7402 131.731 17.7402C132.006 17.7402 132.29 17.6972 132.564 17.6629C132.762 17.6199 132.959 17.5856 133.2 17.5856C133.698 17.6028 134.016 17.9205 134.016 18.513ZM151.91 17.0446C153.216 17.0017 154.486 17.4053 155.551 18.1953V18.075C155.551 17.2851 155.903 16.8901 156.582 16.8901C157.294 16.8901 157.646 17.2507 157.646 17.9205C157.646 18.0407 157.646 18.3928 157.603 18.908C157.526 19.3459 157.483 19.7752 157.483 20.2132C157.483 20.4879 157.526 20.8486 157.56 21.3638C157.603 21.879 157.638 22.231 157.638 22.5144C157.638 23.3473 157.286 23.7423 156.573 23.7423C156.058 23.8196 155.585 23.4246 155.508 22.9094C155.508 22.8321 155.508 22.7548 155.508 22.669V21.6042C155.465 20.9688 155.113 20.3763 154.401 19.9384C153.645 19.4661 152.735 19.2257 151.824 19.2257C150.914 19.1827 150.047 19.4661 149.291 19.9813C148.656 20.4192 148.261 21.1319 148.261 21.879C148.261 23.2615 149.214 24.0944 151.146 24.3348L153.044 24.6096C156.728 25.1248 158.582 26.6275 158.582 29.2035C158.625 30.6718 157.947 32.0886 156.805 32.9988C155.62 33.952 154.074 34.4672 152.134 34.4672C150.433 34.5101 148.811 33.952 147.462 32.9216V33.557C147.462 34.347 147.102 34.742 146.355 34.742C145.565 34.742 145.17 34.304 145.17 33.3938C145.247 32.8357 145.324 32.2861 145.367 31.6937C145.41 31.3759 145.445 31.1012 145.445 30.7835C145.445 30.3112 145.402 29.796 145.324 29.3151C145.247 28.9631 145.204 28.6024 145.204 28.2504C145.204 27.4947 145.556 27.0997 146.234 27.0997C146.707 27.0997 146.99 27.2199 147.102 27.4174C147.256 27.9756 147.342 28.5681 147.299 29.1606C147.342 30.1137 147.814 30.8607 148.768 31.4532C149.875 32.0886 151.146 32.3634 152.408 32.3205C153.362 32.3634 154.272 32.0801 155.062 31.4876C155.731 31.0153 156.092 30.2597 156.092 29.4267C156.092 27.9584 154.907 27.0911 152.572 26.8507C150.356 26.6103 148.656 26.181 147.462 25.5455C146.277 24.9101 145.719 23.7681 145.719 22.1795C145.676 20.7541 146.312 19.3716 147.419 18.4958C148.587 17.5255 150.09 17.0446 151.91 17.0446ZM170.552 23.1412C170.552 22.274 171.11 21.7588 172.175 21.6386C172.098 20.9259 171.703 20.2561 171.067 19.8611C170.355 19.3888 169.522 19.1913 168.655 19.2257C167.229 19.1827 165.881 19.8611 165.014 21.0031C164.104 22.1881 163.631 23.7767 163.631 25.7516C163.631 27.8124 164.069 29.3924 164.936 30.543C165.769 31.6937 167.118 32.3205 168.5 32.2861C169.41 32.2861 170.277 32.0114 170.99 31.4532C171.703 30.8951 172.218 30.1051 172.458 29.1949C172.699 28.4393 172.811 28.0099 172.853 27.8897C173.051 27.4947 173.446 27.2199 173.884 27.2543C174.245 27.2543 174.554 27.3745 174.794 27.6064C175.035 27.8468 175.146 28.1645 175.146 28.5166C175.103 29.1863 174.949 29.8647 174.631 30.4572C174.313 31.1699 173.918 31.8053 173.403 32.3548C172.132 33.7373 170.312 34.45 168.414 34.4157C166.353 34.4929 164.421 33.6257 163.073 32.0801C161.725 30.5344 161.055 28.4822 161.055 25.9491C161.055 23.2615 161.768 21.1233 163.15 19.5004C164.533 17.8776 166.396 17.0876 168.732 17.0876C170.312 17.0446 171.823 17.5255 173.042 18.513C174.15 19.3802 174.785 20.694 174.785 22.1108C174.828 22.8235 174.588 23.5362 174.116 24.0944C173.678 24.6096 173.051 24.8843 172.416 24.8843C171.9 24.8843 171.428 24.7298 171.067 24.4121C170.75 24.0514 170.552 23.5792 170.552 23.1412ZM191.65 34.304C189.872 34.304 188.756 33.557 188.361 32.0114C187.253 33.6343 185.51 34.4672 183.14 34.4672C181.397 34.4672 179.972 34.0293 178.941 33.162C177.911 32.3291 177.319 31.0239 177.362 29.6758C177.284 28.0099 178.194 26.4729 179.654 25.7173C180.126 25.4425 180.642 25.245 181.157 25.0818C181.595 25.0046 182.428 24.8414 183.733 24.7212C185.553 24.5237 186.738 24.2489 187.296 23.8883C187.855 23.5362 188.129 22.9008 188.129 21.9477C188.172 21.1577 187.812 20.3677 187.219 19.8525C186.463 19.2944 185.553 19.0196 184.643 19.0969C183.656 19.0969 182.702 19.3716 181.912 19.9298C181.595 20.1273 181.44 20.3677 181.44 20.5996C181.44 20.6768 181.518 20.7971 181.715 20.9173C182.033 21.192 182.23 21.587 182.187 22.025C182.187 22.4199 182.033 22.8149 181.715 23.0897C181.397 23.3645 180.968 23.5276 180.53 23.5276C180.015 23.5276 179.5 23.3301 179.105 22.9352C178.744 22.5402 178.512 22.025 178.546 21.5098C178.546 20.2818 179.139 19.2514 180.367 18.3842C181.638 17.474 183.175 17.036 184.763 17.079C188.722 17.079 190.697 18.9767 190.697 22.7806V29.3495C190.697 29.9849 190.697 30.5774 190.774 31.2128C190.894 31.9684 191.289 32.3634 191.882 32.3634C192.637 32.3634 193.032 31.6937 193.032 30.3026V28.7226C193.032 28.0529 193.35 27.6922 194.02 27.6922C194.733 27.6922 195.085 28.2074 195.085 29.2378V31.2557C194.93 33.2736 193.822 34.304 191.65 34.304ZM188.001 27.8124V25.5198C187.563 25.9148 187.047 26.2325 186.498 26.43C185.588 26.6704 184.634 26.825 183.647 26.9022C181.191 27.1427 179.963 28.0529 179.963 29.6328C179.92 30.3885 180.281 31.1012 180.874 31.5734C181.586 32.0886 182.419 32.3291 183.286 32.2861C184.755 32.2861 185.897 31.8911 186.73 31.1012C187.606 30.2253 188.043 29.0403 188.001 27.8124ZM200.984 18.5903V19.5004C202.212 17.8776 204.152 16.9674 206.204 17.0446C207.355 17.0446 208.497 17.3623 209.528 17.9548C210.481 18.4271 211.193 19.2171 211.623 20.1702C211.94 21.0804 212.095 22.0679 212.095 23.0554V29.2292C212.095 30.1824 212.095 30.7319 212.138 30.8951C212.258 31.6507 212.533 32.0028 213.005 32.0028C213.246 32.0028 213.52 31.9598 213.761 31.9255C214.001 31.8826 214.199 31.8482 214.431 31.8482C214.705 31.8482 214.989 31.9684 215.186 32.123C215.384 32.3205 215.504 32.5609 215.504 32.8357C215.504 33.1534 215.349 33.4711 215.109 33.6686C214.834 33.909 214.516 33.9863 214.156 33.9863C213.641 33.9863 213.168 33.909 212.653 33.8661C212.018 33.7888 211.348 33.7459 210.713 33.7459C210.24 33.7459 209.759 33.7459 209.33 33.8232C208.265 33.9434 207.664 34.0207 207.587 34.0207C206.72 34.0207 206.282 33.6257 206.282 32.87C206.282 32.2003 206.677 31.8826 207.432 31.8826C207.63 31.8826 207.827 31.9255 208.025 31.9598C208.3 32.0371 208.54 32.0801 208.815 32.0801C209.33 32.0801 209.648 31.4876 209.682 30.3026V24.1716C209.725 23.3817 209.639 22.5917 209.528 21.7931C209.373 21.0031 208.892 20.3248 208.257 19.8525C207.544 19.3373 206.711 19.1055 205.844 19.1055C204.101 19.1055 202.873 19.7409 202.126 20.9688C201.611 21.8017 201.336 23.2614 201.336 25.2793V29.5899C201.293 30.2597 201.379 30.8951 201.533 31.5305C201.611 31.8482 201.928 32.0457 202.246 32.0457C202.486 32.0457 202.718 32.0028 202.959 31.9255C203.199 31.8482 203.474 31.8053 203.714 31.8053C204.384 31.8053 204.702 32.1573 204.702 32.913C204.702 33.6257 204.264 33.9777 203.397 33.9777C203.242 33.9777 202.641 33.9004 201.696 33.7802C201.181 33.703 200.632 33.66 200.116 33.703C199.524 33.703 198.889 33.7459 198.296 33.8232C197.343 33.9434 196.793 33.9777 196.673 33.9777C195.763 33.9777 195.291 33.6257 195.291 32.87C195.213 32.3548 195.565 31.8826 196.081 31.8396C196.158 31.8396 196.235 31.8396 196.355 31.8396C196.553 31.8396 196.75 31.8826 196.948 31.9169C197.223 31.9942 197.54 31.9942 197.815 31.9942C198.485 31.9942 198.803 31.3588 198.846 30.0965V21.4411C198.846 20.9259 198.768 20.4106 198.571 19.9384C198.416 19.6636 198.133 19.5004 197.815 19.5434C197.575 19.5434 197.343 19.5863 197.145 19.6207C196.905 19.6636 196.707 19.6979 196.476 19.6979C195.686 19.6979 195.291 19.3373 195.291 18.6332C195.291 17.9205 195.763 17.5255 196.759 17.5255C196.879 17.5255 196.999 17.5255 197.077 17.5684L198.262 17.6886C198.579 17.6886 198.854 17.6457 199.172 17.6114C199.73 17.5684 200.039 17.5341 200.039 17.5341C200.675 17.6028 200.984 17.9205 200.984 18.5903Z" fill="white"/>
<path d="M10.8467 22.8235C10.8467 21.7158 11.7569 20.8056 12.8646 20.8056H16.265C17.3727 20.8056 18.3258 21.7158 18.3258 22.8665V35.6951C18.7208 35.5749 19.193 35.4547 19.7512 35.3344C20.5068 35.137 21.0564 34.4672 21.0564 33.6686V17.7573C21.0564 16.6497 21.9666 15.6965 23.1172 15.6965H26.5176C27.6252 15.6965 28.5784 16.6067 28.5784 17.7573V32.518C28.5784 32.518 29.4113 32.1573 30.2442 31.8053C30.8796 31.5305 31.2746 30.938 31.2746 30.2253V12.6139C31.2746 11.5062 32.1848 10.5531 33.2925 10.5531H36.6929C37.8006 10.5531 38.7108 11.4633 38.7108 12.6139V27.1427C41.6388 25.0046 44.6442 22.4285 47.0227 19.3459C47.7354 18.4357 47.9329 17.2507 47.5379 16.143C43.1845 3.63212 29.4886 -3.02262 16.9777 1.33946C4.47533 5.69295 -2.17941 19.3802 2.17408 31.8912C2.64635 33.3166 3.28177 34.6647 4.03741 35.9699C4.6299 37.0003 5.73759 37.5928 6.92256 37.4726C7.55798 37.4296 8.34796 37.3523 9.33544 37.2321C10.2027 37.1548 10.8381 36.3992 10.8381 35.5319L10.8467 22.8235Z" fill="white"/>
<path d="M10.7695 43.4061C21.4944 51.2028 36.4955 48.8243 44.2923 38.0994C47.2633 33.9864 48.8862 29.0318 48.8862 23.9656C48.8862 23.4075 48.8432 22.8579 48.8089 22.2998C40.059 35.4118 23.8643 41.5513 10.7695 43.4061Z" fill="white"/>
</g>
<defs>
<clipPath id="clip0_2918_1478">
<rect width="214.669" height="48" fill="white" transform="translate(0.842773)"/>
</clipPath>
</defs>
</svg>
