<svg width="1343" height="759" viewBox="0 0 1343 759" fill="none" xmlns="http://www.w3.org/2000/svg">
<g style="mix-blend-mode:hard-light" opacity="0.2" clip-path="url(#clip0_2918_1048)">
<path d="M95.5306 185.868L66.4905 146.002C66.2553 145.68 65.9453 145.419 65.5871 145.243C65.229 145.067 64.8334 144.981 64.4344 144.991L15.1244 146.327C14.6648 146.338 14.2114 146.22 13.815 145.987C13.4186 145.754 13.0949 145.416 12.8802 145.009C12.6655 144.603 12.5683 144.144 12.5994 143.686C12.6306 143.227 12.789 142.786 13.0567 142.413L41.9923 102.465C42.2364 102.136 42.394 101.751 42.4509 101.345C42.5077 100.939 42.4618 100.525 42.3175 100.142L25.8111 53.6777C25.6563 53.2445 25.626 52.7765 25.7236 52.3269C25.8211 51.8773 26.0427 51.464 26.3631 51.1339C26.6836 50.8038 27.0901 50.5701 27.5366 50.4592C27.9831 50.3483 28.4517 50.3647 28.8894 50.5065L75.8065 65.7003C76.1956 65.8361 76.6127 65.871 77.019 65.802C77.4252 65.7329 77.8074 65.5621 78.1297 65.3054L117.183 35.2663C117.549 34.988 117.984 34.817 118.442 34.7725C118.899 34.728 119.36 34.8117 119.772 35.0143C120.185 35.2169 120.533 35.5304 120.777 35.9196C121.021 36.3088 121.152 36.7583 121.156 37.2178L121.225 86.5511C121.227 86.9509 121.325 87.3444 121.511 87.6983C121.697 88.0522 121.965 88.356 122.294 88.5839L162.95 116.462C163.327 116.724 163.624 117.086 163.807 117.507C163.991 117.928 164.053 118.391 163.988 118.846C163.923 119.3 163.733 119.727 163.439 120.08C163.145 120.432 162.758 120.696 162.323 120.842L115.417 136.152C115.039 136.279 114.697 136.495 114.42 136.782C114.143 137.069 113.939 137.419 113.826 137.801L99.8401 185.113C99.705 185.544 99.454 185.93 99.1145 186.228C98.775 186.526 98.3601 186.724 97.9152 186.802C97.4702 186.88 97.0124 186.834 96.5919 186.67C96.1713 186.505 95.8041 186.228 95.5306 185.868Z" fill="#EEB13D"/>
<path d="M1206.42 180.339L1201.42 128.229C1201.38 127.806 1201.24 127.398 1201.01 127.042C1200.77 126.685 1200.46 126.391 1200.08 126.185L1154.33 100.758C1153.91 100.518 1153.57 100.168 1153.34 99.7465C1153.11 99.3247 1153 98.8473 1153.02 98.3669C1153.04 97.8865 1153.2 97.4218 1153.47 97.0238C1153.74 96.6258 1154.11 96.31 1154.55 96.1111L1202.57 75.2023C1202.96 75.036 1203.3 74.7762 1203.57 74.446C1203.83 74.1157 1204.01 73.7252 1204.09 73.3089L1214.14 21.9311C1214.23 21.4509 1214.46 21.0061 1214.79 20.6475C1215.12 20.2889 1215.55 20.0308 1216.02 19.9025C1216.49 19.7743 1216.99 19.781 1217.46 19.9219C1217.93 20.0629 1218.35 20.3324 1218.67 20.6998L1253.31 59.9272C1253.59 60.2527 1253.96 60.5026 1254.36 60.6546C1254.77 60.8066 1255.2 60.856 1255.63 60.7984L1307.6 54.4677C1308.09 54.4081 1308.58 54.4856 1309.02 54.6913C1309.46 54.897 1309.84 55.2227 1310.11 55.6315C1310.38 56.0402 1310.52 56.5157 1310.53 57.0039C1310.54 57.4922 1310.42 57.9737 1310.17 58.3939L1283.59 103.487C1283.37 103.853 1283.25 104.266 1283.23 104.691C1283.21 105.116 1283.29 105.54 1283.46 105.927L1305.53 153.39C1305.74 153.832 1305.82 154.324 1305.76 154.81C1305.7 155.295 1305.51 155.754 1305.21 156.135C1304.9 156.516 1304.49 156.804 1304.03 156.965C1303.57 157.127 1303.07 157.156 1302.6 157.049L1251.49 145.7C1251.08 145.611 1250.65 145.623 1250.25 145.734C1249.84 145.846 1249.47 146.053 1249.16 146.339L1210.83 182C1210.47 182.342 1210.03 182.576 1209.54 182.675C1209.06 182.774 1208.56 182.735 1208.1 182.561C1207.64 182.387 1207.23 182.086 1206.94 181.693C1206.64 181.3 1206.46 180.831 1206.42 180.339Z" fill="#EEB13D"/>
<path d="M1051.66 221.82C1050.04 222.029 1048.87 224.364 1049.52 226.373C1048.94 224.236 1050.09 222.029 1051.66 221.82Z" fill="#2483A4"/>
<path d="M1070.45 210.181C1070.8 209.95 1071.21 209.84 1071.62 209.867L1070.45 209.553C1070.29 209.51 1070.13 209.426 1070 209.309C1070.14 209.507 1070.35 209.913 1070.45 210.181Z" fill="#2483A4"/>
<path d="M1072.83 210.181C1073.36 210.443 1073.94 210.597 1074.54 210.634L1072.83 210.181Z" fill="#2483A4"/>
<path d="M1031.01 207.404L1027.26 207.509C1026.93 208.187 1026.77 208.939 1026.82 209.693C1026.82 209.853 1026.84 210.013 1026.87 210.169L1028.63 212.33C1029.8 210.901 1030.62 209.212 1031.01 207.404Z" fill="#2483A4"/>
<path d="M1033.14 211.214C1033.02 211.014 1032.95 210.786 1032.94 210.552C1032.94 210.318 1032.99 210.085 1033.09 209.876C1033.2 209.667 1033.36 209.489 1033.55 209.357C1033.74 209.225 1033.97 209.145 1034.2 209.124C1035.09 208.926 1035.36 209.495 1035.19 210.343C1036.05 210.589 1036.82 211.096 1037.38 211.795C1038.14 210.378 1037.31 208.752 1037.66 207.23L1034.18 207.323C1034.02 207.458 1033.88 207.606 1033.75 207.764C1032.31 209.518 1030.81 211.249 1029.3 212.934C1029.27 212.968 1029.23 212.996 1029.18 213.015L1032.67 217.255L1032.86 217.022C1034.19 215.187 1034.79 213.247 1033.14 211.214Z" fill="#2483A4"/>
<path d="M1038.34 223.353L1039.87 222.296C1040.72 220.751 1039.18 219.764 1038.91 218.474C1038.77 217.754 1038.03 218.335 1037.75 218.683C1037.26 219.301 1036.81 219.945 1036.4 220.612C1035.73 218.068 1035.88 217.719 1037.99 216.976C1038.14 216.976 1038.46 216.906 1038.46 216.848C1038.81 214.653 1040.65 213.282 1041.48 211.528C1042.17 210.029 1042.94 208.554 1043.68 207.067L1037.69 207.23C1037.34 208.752 1038.17 210.378 1037.41 211.795C1037.23 212.271 1037.03 212.759 1036.83 213.236C1035.82 215.175 1035.44 217.417 1034.32 219.311L1037.81 223.597C1037.98 223.498 1038.15 223.416 1038.34 223.353Z" fill="#2483A4"/>
<path d="M1033.77 207.764C1033.91 207.606 1034.05 207.458 1034.2 207.323L1031.03 207.404C1030.66 209.207 1029.86 210.895 1028.71 212.33L1029.27 213.015C1029.31 212.996 1029.35 212.968 1029.38 212.934C1030.82 211.238 1032.32 209.507 1033.77 207.764Z" fill="#2483A4"/>
<path d="M1047.8 209.228C1047.21 210.076 1046.82 209.762 1046.37 208.903C1045.93 208.043 1043.24 209.786 1043.62 210.61C1044.19 211.842 1041.38 214.165 1044.96 214.525C1045.89 214.618 1044.4 216.279 1044.56 217.359C1044.57 217.508 1044.54 217.656 1044.49 217.793C1044.43 217.931 1044.34 218.053 1044.23 218.151C1044.12 218.249 1043.98 218.321 1043.84 218.361C1043.7 218.401 1043.55 218.408 1043.4 218.381C1042.12 217.928 1044.04 217.336 1043.4 216.79C1041.31 217.65 1041.08 218.033 1041.9 219.868C1042.15 220.271 1042.29 220.73 1042.32 221.202C1042.35 221.675 1042.26 222.147 1042.05 222.575C1042.49 223.469 1043.75 223.493 1044.07 224.515C1044.32 224.739 1044.49 225.037 1044.56 225.366C1044.63 225.694 1044.59 226.035 1044.45 226.338C1044.68 226.771 1045.01 227.144 1045.42 227.428C1045.82 227.712 1046.28 227.899 1046.77 227.976C1048.81 228.348 1047.5 227.059 1047.69 226.536C1048.49 224.375 1048.53 221.797 1051.17 220.635C1048.37 219.392 1048.56 219.229 1050.64 217.15C1052.53 215.28 1052.96 212.504 1053.74 209.948C1052.36 210.018 1052.95 209.228 1053.17 208.612C1051.82 209.1 1052.39 210.285 1052.15 211.214C1051.74 212.496 1051.25 213.749 1050.68 214.966C1049.74 213.805 1049.85 212.841 1050.21 212.376C1050.59 211.917 1050.82 211.359 1050.9 210.768C1050.97 210.178 1050.87 209.579 1050.61 209.042C1050.46 208.59 1050.47 208.099 1050.63 207.651C1050.8 207.203 1051.11 206.825 1051.52 206.58C1051.7 206.459 1051.91 206.378 1052.12 206.342C1052.34 206.306 1052.55 206.316 1052.77 206.371C1052.98 206.426 1053.17 206.524 1053.34 206.66C1053.51 206.796 1053.65 206.967 1053.75 207.16C1053.83 207.009 1053.88 206.8 1054.01 206.731C1056.74 205.337 1057.78 202.874 1058.28 200.051C1055.52 200.47 1053.63 201.794 1053.34 204.814C1053.27 205.418 1052.02 205.615 1051.9 205.139C1051.74 204.396 1051.16 204.245 1050.64 204.059L1049.12 206.382C1049.02 206.523 1048.89 206.64 1048.74 206.724C1048.58 206.809 1048.42 206.859 1048.24 206.87C1048.73 207.358 1048.27 208.589 1047.8 209.228ZM1045.39 220.74C1046.14 221.274 1047.01 221.901 1046.68 223.063C1046.42 223.887 1045.72 223.585 1045.18 223.353C1044.97 223.309 1044.78 223.219 1044.61 223.091C1044.44 222.962 1044.31 222.798 1044.21 222.61C1044.11 222.423 1044.06 222.216 1044.05 222.005C1044.04 221.794 1044.08 221.584 1044.17 221.39C1044.47 220.728 1044.89 220.368 1045.39 220.74Z" fill="#2483A4"/>
<path d="M1069.79 249.396C1069.72 248.216 1069.88 247.034 1070.25 245.912C1070.92 244.204 1069.46 242.857 1067.58 242.427C1067.58 243.159 1067.67 243.902 1067.73 244.994C1066.36 244.088 1065.48 242.183 1063.73 243.67C1064.6 244.913 1064.47 245.737 1063.73 246.33L1069.44 250.244C1069.53 249.953 1069.65 249.67 1069.79 249.396Z" fill="#2483A4"/>
<path d="M1072.39 245.005C1073.15 246.748 1070.78 247.84 1071.42 249.582C1071.57 249.868 1071.6 250.2 1071.52 250.511C1071.43 250.822 1071.23 251.088 1070.95 251.255L1073.61 253.079L1073.8 253.16C1073.71 252.557 1073.73 251.942 1073.87 251.348C1074.22 250.337 1074.48 249.524 1075.12 249.257L1074.73 241.66C1074.52 241.867 1074.36 242.112 1074.24 242.38C1073.75 243.333 1074.61 245.249 1072.39 245.005Z" fill="#2483A4"/>
<path d="M1073.87 251.325C1073.73 251.919 1073.71 252.534 1073.8 253.137C1073.96 253.211 1074.14 253.241 1074.33 253.224C1074.51 253.208 1074.68 253.145 1074.83 253.043C1074.98 252.94 1075.1 252.801 1075.18 252.638C1075.26 252.476 1075.29 252.295 1075.28 252.115L1075.12 249.234C1074.48 249.524 1074.22 250.337 1073.87 251.325Z" fill="#2483A4"/>
<path d="M1042.81 244.146C1041.91 243.832 1041.65 244.518 1041.23 245.064C1040.37 246.225 1039.36 245.621 1038.47 245.133C1037.31 244.494 1037.93 243.716 1038.47 243.031C1038.8 242.624 1039.25 242.183 1038.87 241.695C1038.32 241.021 1037.87 241.846 1037.39 241.904C1036.48 242.023 1035.63 242.43 1034.97 243.066L1034.29 245.389H1034.47C1034.59 245.434 1034.7 245.505 1034.79 245.598C1034.88 245.691 1034.96 245.802 1035 245.925C1035.04 246.048 1035.06 246.179 1035.05 246.309C1035.04 246.439 1035 246.565 1034.93 246.678C1034.65 247.098 1034.24 247.416 1033.77 247.584C1033.76 247.732 1033.79 247.879 1033.85 248.015C1033.9 248.151 1033.99 248.274 1034.09 248.374C1034.29 248.016 1034.56 247.7 1034.87 247.445C1035.19 247.189 1035.56 247 1035.95 246.887C1036.6 246.783 1037.11 247.236 1037.68 247.642L1042.16 245.923C1042.28 245.296 1042.56 244.727 1042.81 244.146Z" fill="#2483A4"/>
<path d="M1065.94 207.184C1065.59 206.812 1065.2 206.475 1064.77 206.138C1064.11 207.706 1062.57 207.195 1061.41 207.578C1062.37 208.415 1062.57 211.133 1061.66 211.888C1061.51 212.029 1061.32 212.127 1061.11 212.17C1060.91 212.213 1060.7 212.2 1060.5 212.132C1060.38 212.091 1060.27 212.02 1060.18 211.926C1060.09 211.832 1060.02 211.717 1059.99 211.592C1059.95 211.467 1059.95 211.335 1059.98 211.208C1060.01 211.082 1060.07 210.964 1060.15 210.866C1060.64 209.984 1061 209.038 1061.22 208.055C1058.73 207.822 1059.55 206.707 1060.56 205.546C1058.96 205.081 1059.4 204.059 1059.88 203.037C1058.72 203.536 1058.79 204.837 1058.25 205.732C1059.28 206.974 1059.41 207.962 1057.62 208.659C1057.08 208.932 1056.65 209.367 1056.38 209.902C1055.03 212.376 1053.7 214.862 1052.49 217.406C1052.19 217.998 1051.87 219.067 1052.95 219.311C1054.03 219.555 1054.33 218.683 1054.31 217.847C1054.25 216.07 1054.87 215.721 1056.36 216.685C1056.74 216.918 1057.6 217.173 1057.53 216.349C1057.31 214.908 1057.94 215.187 1058.8 215.454C1059.66 215.721 1060.19 216.325 1059.76 217.406C1059.63 217.959 1059.31 218.448 1058.86 218.782C1058.4 219.116 1057.83 219.271 1057.27 219.218C1056.65 219.152 1056.01 219.257 1055.44 219.52C1054.87 219.784 1054.38 220.197 1054.03 220.716C1055.85 220.554 1057.21 221.123 1058.55 220.368C1060.78 220.368 1061.78 219.206 1061.79 217.057C1061.78 216.666 1061.85 216.278 1062 215.916C1062.15 215.555 1062.37 215.227 1062.65 214.955C1063.02 214.595 1063.72 213.793 1063.81 214.955C1064.04 216.883 1066.4 214.676 1066.45 216.418C1066.45 217.812 1064.41 217.708 1064.28 219.032C1064.11 220.04 1063.8 221.018 1063.36 221.936C1062.47 224.12 1061.35 224.143 1059.87 222.598C1059.34 222.654 1058.84 222.853 1058.42 223.172C1057.99 223.49 1057.66 223.918 1057.46 224.41L1056.48 226.803C1055.52 228.104 1056.48 229.823 1055.47 231.449C1054.87 230.183 1054.8 228.685 1053.22 228.696C1053.11 229.075 1053.04 229.465 1053.02 229.858C1053.31 230.117 1053.49 230.474 1053.53 230.859C1053.58 231.245 1053.48 231.633 1053.25 231.949C1052.89 232.518 1052.57 232.007 1052.25 231.798L1052.04 232.263L1051.03 233.424C1048.86 235.887 1049.71 237.304 1053.11 237.943L1050.59 240.069C1050.38 240.44 1049.95 240.87 1050.03 241.149C1050.21 241.753 1050.73 241.358 1051.09 241.242C1053.1 240.556 1055.63 240.382 1054.82 237.072C1054.66 236.398 1055.46 236.189 1056.09 236.131C1056.09 236.131 1056.26 235.98 1056.25 235.945C1054.54 232.669 1058.39 230.834 1058.37 227.953C1058.37 227.012 1059.03 226.025 1060.23 227.198C1060.65 227.546 1060.41 228.58 1061.28 228.36C1062.33 228.17 1063.35 227.838 1064.31 227.372C1064.76 227.14 1064.31 226.629 1063.93 226.42C1063.54 226.211 1062.66 225.351 1063 225.119C1065.12 223.69 1064.81 220.472 1067.28 219.38C1068.45 218.753 1069.86 218.3 1069.7 216.476C1069.7 215.93 1070.13 215.547 1070.69 215.454C1070.98 215.379 1071.3 215.403 1071.58 215.522C1071.86 215.642 1072.09 215.851 1072.24 216.116C1072.51 216.649 1072.75 217.196 1072.95 217.754L1073.93 218.137C1073.98 217.94 1074.09 217.761 1074.24 217.625C1074.4 217.489 1074.59 217.4 1074.79 217.371C1075.02 216.497 1075.53 215.721 1076.24 215.164C1078.77 215.059 1080.96 216.941 1083.56 216.43L1084.23 216.151C1084.42 215.872 1084.82 215.489 1084.74 215.35C1084.14 214.188 1084.24 213.689 1084.65 213.352L1079.88 212.074C1079.62 212.278 1079.43 212.547 1079.32 212.851C1079.21 213.156 1079.18 213.485 1079.24 213.805C1078.14 213.713 1077.05 213.55 1075.97 213.317C1074.68 212.968 1074.08 212.248 1075.55 211.296C1075.68 211.216 1075.8 211.122 1075.9 211.017L1074.54 210.668C1073.95 210.631 1073.37 210.478 1072.84 210.215L1071.67 209.902C1071.26 209.875 1070.85 209.985 1070.51 210.215C1070.41 209.948 1070.2 209.588 1070.11 209.344C1069.98 209.223 1069.89 209.077 1069.83 208.914L1069.1 206.847C1068.06 207.881 1067.16 208.403 1065.94 207.184Z" fill="#2483A4"/>
<path d="M1091.11 215.059L1087.91 214.211C1087.62 214.361 1087.32 214.489 1087.01 214.595C1086.07 214.943 1086.09 215.977 1085.7 216.709C1085.83 217.43 1085.76 218.174 1085.48 218.855C1085.21 219.535 1084.75 220.124 1084.15 220.554C1084.09 220.677 1084.05 220.813 1084.04 220.952C1084.04 221.092 1084.06 221.231 1084.11 221.36C1084.17 221.489 1084.25 221.604 1084.35 221.698C1084.46 221.792 1084.58 221.861 1084.71 221.901L1084.93 221.971L1088.85 218.962C1089.09 218.612 1089.38 218.299 1089.72 218.033C1089.56 218.188 1089.43 218.374 1089.35 218.579L1091.48 216.941C1091.64 216.82 1091.76 216.657 1091.84 216.47C1091.91 216.283 1091.92 216.08 1091.88 215.884C1091.85 215.689 1091.75 215.507 1091.62 215.362C1091.48 215.216 1091.31 215.111 1091.11 215.059Z" fill="#2483A4"/>
<path d="M1075.99 213.305C1077.07 213.538 1078.16 213.701 1079.26 213.793C1079.2 213.474 1079.22 213.144 1079.34 212.84C1079.45 212.535 1079.64 212.266 1079.9 212.062L1075.92 211.005C1075.82 211.111 1075.7 211.204 1075.57 211.284C1074.1 212.237 1074.7 212.992 1075.99 213.305Z" fill="#2483A4"/>
<path d="M1058.39 198.46C1058.7 198.206 1059 197.931 1059.27 197.635C1059.55 197.287 1059.82 196.88 1060.27 197.264C1060.38 197.339 1060.46 197.438 1060.52 197.553C1060.58 197.669 1060.61 197.796 1060.61 197.926C1060.61 198.055 1060.58 198.183 1060.52 198.298C1060.46 198.413 1060.38 198.513 1060.27 198.588C1059.63 199.122 1058.94 199.598 1058.26 200.098C1057.76 202.921 1056.72 205.383 1053.99 206.777C1053.86 206.847 1053.81 207.056 1053.73 207.207C1054.15 207.939 1053.95 208.369 1053.15 208.659C1052.93 209.275 1052.34 210.065 1053.72 209.995C1054.37 209.333 1055.01 208.659 1055.65 207.985C1056.1 207.219 1056.02 206.115 1057.1 205.778L1058.26 205.674C1058.81 204.779 1058.7 203.478 1059.9 202.979C1061.84 200.168 1062.81 196.845 1064.42 193.872L1063.87 192.338C1063.5 192.844 1063.03 193.267 1062.49 193.579C1061.94 193.891 1061.34 194.086 1060.71 194.151C1060.27 194.151 1059.84 194.627 1059.37 194.232C1058.53 193.558 1058.83 192.536 1058.68 191.688L1057.67 193.256C1057.54 193.713 1057.27 194.118 1056.9 194.418L1054.94 197.45C1056.2 197.124 1057.23 198.239 1058.39 198.46Z" fill="#2483A4"/>
<path d="M1059.38 194.232C1059.85 194.627 1060.28 194.232 1060.72 194.15C1061.35 194.086 1061.95 193.891 1062.49 193.579C1063.04 193.267 1063.51 192.844 1063.88 192.338L1063.36 190.863L1062.71 191.049C1062.75 190.624 1062.84 190.207 1062.99 189.806L1062.63 188.784C1062.56 188.596 1062.44 188.43 1062.29 188.306C1062.13 188.182 1061.94 188.104 1061.74 188.081C1061.55 188.058 1061.35 188.091 1061.16 188.176C1060.98 188.261 1060.83 188.395 1060.72 188.563L1058.69 191.688C1058.84 192.536 1058.54 193.558 1059.38 194.232Z" fill="#2483A4"/>
<path d="M1060.59 205.488C1061.53 205.197 1061.59 204.407 1061.61 203.618C1061.63 203.055 1061.8 202.508 1062.1 202.031C1062.39 201.553 1062.81 201.163 1063.31 200.899C1063.91 200.67 1064.46 200.324 1064.92 199.881C1065.39 199.438 1065.76 198.908 1066.02 198.321L1064.44 193.872C1062.82 196.845 1061.86 200.168 1059.92 202.979C1059.48 204.001 1058.99 205.023 1060.59 205.488Z" fill="#2483A4"/>
<path d="M1061.65 203.617C1061.65 204.407 1061.57 205.197 1060.63 205.488C1059.62 206.649 1058.81 207.811 1061.29 207.997L1061.5 207.52C1062.66 207.137 1064.21 207.648 1064.87 206.08C1065.85 205.162 1066.23 203.327 1067.9 203.501L1066.05 198.321C1065.8 198.908 1065.42 199.438 1064.96 199.881C1064.5 200.323 1063.95 200.67 1063.35 200.899C1062.85 201.163 1062.43 201.553 1062.13 202.03C1061.84 202.508 1061.67 203.055 1061.65 203.617Z" fill="#2483A4"/>
<path d="M1027.26 207.509H1026.94C1026.74 207.511 1026.54 207.57 1026.38 207.679C1026.21 207.787 1026.07 207.941 1025.99 208.122C1025.91 208.303 1025.88 208.504 1025.9 208.702C1025.93 208.9 1026.01 209.086 1026.14 209.24L1026.88 210.157C1026.84 210.001 1026.82 209.842 1026.82 209.681C1026.78 208.931 1026.93 208.184 1027.26 207.509Z" fill="#2483A4"/>
<path d="M1036.8 213.236C1037 212.759 1037.2 212.271 1037.38 211.795C1036.82 211.096 1036.05 210.588 1035.19 210.343C1035.35 212.585 1034.02 211.435 1033.19 211.191C1034.84 213.224 1034.23 215.164 1032.86 216.999L1032.67 217.231L1033.83 218.602C1034.47 216.641 1035.48 214.82 1036.8 213.236Z" fill="#2483A4"/>
<path d="M1034.21 209.124C1033.97 209.145 1033.75 209.225 1033.55 209.357C1033.36 209.489 1033.2 209.667 1033.1 209.876C1032.99 210.085 1032.94 210.318 1032.95 210.552C1032.96 210.786 1033.03 211.014 1033.15 211.214C1033.46 210.053 1034.12 209.809 1035.15 210.366C1035.4 209.507 1035.1 208.926 1034.21 209.124Z" fill="#2483A4"/>
<path d="M1038.42 216.848C1038.42 216.906 1038.1 216.93 1037.95 216.976C1035.84 217.719 1035.63 218.068 1036.36 220.612C1036.77 219.945 1037.22 219.301 1037.71 218.684C1038.01 218.335 1038.75 217.754 1038.87 218.474C1039.14 219.764 1040.68 220.798 1039.83 222.296C1040.73 221.901 1041.52 221.727 1041.11 223.179C1040.94 223.73 1040.73 224.269 1040.5 224.794C1041.58 224.445 1041.51 223.342 1041.95 222.575C1042.15 222.147 1042.24 221.675 1042.21 221.203C1042.19 220.73 1042.04 220.271 1041.8 219.868C1040.98 218.033 1041.2 217.65 1043.29 216.79C1043.96 217.336 1042.04 217.952 1043.29 218.382C1043.44 218.408 1043.59 218.401 1043.74 218.361C1043.88 218.321 1044.01 218.249 1044.12 218.151C1044.23 218.053 1044.32 217.931 1044.38 217.793C1044.44 217.656 1044.46 217.508 1044.46 217.359C1044.29 216.279 1045.78 214.618 1044.85 214.525C1041.27 214.165 1044.08 211.842 1043.52 210.61C1043.13 209.786 1045.91 208.194 1046.27 208.903C1046.63 209.611 1047.1 210.064 1047.7 209.228C1048.16 208.589 1048.63 207.358 1048.13 206.905L1045.5 206.975C1045.44 207.222 1045.28 207.436 1045.07 207.572C1044.85 207.708 1044.59 207.756 1044.34 207.706C1043.82 207.625 1043.71 207.346 1043.76 207.021H1043.56C1042.82 208.508 1042.05 209.983 1041.35 211.482C1040.62 213.282 1038.78 214.653 1038.42 216.848Z" fill="#2483A4"/>
<path d="M1038.98 231.438C1039.07 230.98 1039.27 230.551 1039.56 230.184C1039.85 229.817 1040.23 229.523 1040.65 229.324C1041.18 229.115 1041.65 228.894 1041.57 228.046C1041.29 225.595 1042.66 225.63 1044.38 226.338C1044.52 226.035 1044.56 225.694 1044.49 225.366C1044.42 225.037 1044.25 224.739 1044.01 224.515C1042.84 223.946 1041.92 223.783 1041.39 225.316C1041.2 225.695 1040.92 226.022 1040.58 226.269C1040.34 226.519 1040.05 226.727 1039.74 226.884L1039.08 229.103C1039.19 229.812 1038.57 230.904 1038.98 231.438Z" fill="#2483A4"/>
<path d="M1039.86 225.084C1039.15 224.689 1037.96 224.712 1038.33 223.353C1038.14 223.414 1037.95 223.496 1037.76 223.597L1039.22 225.398C1039.45 225.329 1039.66 225.223 1039.86 225.084Z" fill="#2483A4"/>
<path d="M1036.9 237.931C1037.28 236.77 1037.95 236.073 1039.04 236.108C1039.49 234.737 1036.45 234.412 1038.4 232.867C1038.27 232.828 1038.14 232.765 1038.03 232.681L1036.1 239.337C1036.47 238.938 1036.75 238.456 1036.9 237.931Z" fill="#2483A4"/>
<path d="M1038.98 231.438C1038.57 230.904 1039.19 229.812 1039.08 229.115L1038.02 232.692C1038.14 232.776 1038.26 232.839 1038.4 232.878L1038.98 231.438Z" fill="#2483A4"/>
<path d="M1041.15 223.179C1041.56 221.727 1040.77 221.901 1039.87 222.296L1038.34 223.353C1037.97 224.712 1039.15 224.689 1039.86 225.084L1040.53 224.793C1040.77 224.269 1040.98 223.73 1041.15 223.179Z" fill="#2483A4"/>
<path d="M1036.8 213.236C1035.44 214.819 1034.4 216.649 1033.74 218.625L1034.29 219.311C1035.41 217.417 1035.79 215.175 1036.8 213.236Z" fill="#2483A4"/>
<path d="M1044.44 207.741C1044.69 207.791 1044.95 207.743 1045.16 207.607C1045.38 207.47 1045.53 207.257 1045.6 207.01H1043.84C1043.81 207.381 1043.91 207.66 1044.44 207.741Z" fill="#2483A4"/>
<path d="M1037.4 241.904C1037.88 241.904 1038.33 241.021 1038.88 241.695C1039.26 242.183 1038.81 242.624 1038.48 243.031C1037.93 243.716 1037.32 244.494 1038.48 245.133C1039.37 245.621 1040.38 246.19 1041.24 245.063C1041.65 244.518 1041.92 243.832 1042.82 244.146C1042.97 244.377 1043.19 244.556 1043.45 244.66C1043.7 244.764 1043.99 244.787 1044.26 244.727C1044.86 242.915 1043.32 241.114 1044.26 239.279C1044.38 239.012 1044.26 237.908 1043.57 238.442C1042.32 239.453 1041.35 238.64 1040.57 238.082C1039.15 237.037 1041.27 236.479 1041.16 235.538C1041.16 235.201 1041.16 234.853 1041.16 234.505C1041.47 233.935 1041.03 232.692 1042.25 232.925C1043.07 233.076 1043 233.912 1042.78 234.609C1042.56 235.306 1042.11 236.328 1043.33 236.317C1043.62 236.333 1043.92 236.281 1044.19 236.164C1044.46 236.047 1044.7 235.869 1044.89 235.644C1045.08 235.419 1045.21 235.153 1045.28 234.866C1045.35 234.58 1045.36 234.281 1045.29 233.993C1044.54 233.018 1044.43 231.775 1045.72 231.589C1048.04 231.24 1048.16 229.022 1049.44 227.837C1048.86 227.43 1048.28 227.001 1047.71 226.582C1047.52 227.105 1048.87 228.394 1046.79 228.023C1046.3 227.946 1045.84 227.758 1045.44 227.474C1045.03 227.19 1044.7 226.818 1044.47 226.385C1042.75 225.676 1041.38 225.641 1041.65 228.092C1041.74 228.94 1041.27 229.161 1040.74 229.37C1040.31 229.569 1039.94 229.863 1039.65 230.23C1039.36 230.597 1039.16 231.026 1039.06 231.484L1038.48 232.913C1036.53 234.458 1039.58 234.783 1039.12 236.154C1038.03 236.154 1037.37 236.816 1036.99 237.978C1036.82 238.506 1036.53 238.988 1036.15 239.383L1035.07 243.054C1035.71 242.44 1036.53 242.038 1037.4 241.904Z" fill="#2483A4"/>
<path d="M1049.53 226.373C1048.88 224.364 1050.05 222.029 1051.66 221.82C1052.35 221.739 1053.21 221.739 1053.39 222.517C1053.58 223.295 1052.7 223.388 1052.23 223.609C1051.52 223.779 1050.89 224.204 1050.46 224.805C1050.03 225.405 1049.84 226.14 1049.91 226.873C1050.43 227.088 1051 227.132 1051.55 226.998C1052.09 226.864 1052.58 226.56 1052.94 226.129C1053.04 226.033 1053.13 225.928 1053.21 225.816C1053.31 225.705 1053.4 225.589 1053.49 225.467L1053.82 224.968C1054.88 223.365 1055.95 222.761 1057.41 224.457C1057.62 223.965 1057.95 223.537 1058.37 223.218C1058.8 222.899 1059.3 222.701 1059.83 222.645C1058.78 222.273 1057.7 221.936 1058.49 220.461C1057.16 221.216 1055.8 220.647 1053.97 220.809C1054.33 220.29 1054.82 219.877 1055.39 219.613C1055.96 219.35 1056.59 219.245 1057.22 219.311C1057.78 219.364 1058.34 219.209 1058.8 218.875C1059.26 218.541 1059.58 218.052 1059.7 217.499C1060.13 216.418 1059.7 215.884 1058.75 215.547C1057.8 215.21 1057.25 215.001 1057.47 216.442C1057.59 217.266 1056.73 217.011 1056.31 216.778C1054.81 215.826 1054.2 216.174 1054.25 217.94C1054.25 218.776 1053.88 219.624 1052.89 219.404C1051.91 219.183 1052.14 218.091 1052.43 217.499C1053.65 214.955 1054.97 212.469 1056.32 209.995C1056.59 209.46 1057.03 209.025 1057.56 208.752C1059.38 208.055 1059.23 207.068 1058.19 205.825L1057.03 205.929C1056.58 206.684 1056.66 207.788 1055.58 208.136C1054.94 208.81 1054.3 209.484 1053.65 210.146C1052.87 212.666 1052.49 215.478 1050.55 217.348C1048.47 219.38 1048.28 219.543 1051.08 220.833C1048.4 221.994 1048.35 224.573 1047.6 226.733C1048.18 227.152 1048.76 227.581 1049.33 227.988L1049.67 227.163C1049.59 226.905 1049.55 226.641 1049.53 226.373Z" fill="#2483A4"/>
<path d="M1051.91 205.186C1052.03 205.662 1053.28 205.464 1053.35 204.86C1053.68 201.84 1055.52 200.516 1058.29 200.098C1058.96 199.598 1059.66 199.122 1060.3 198.588C1060.4 198.513 1060.49 198.413 1060.55 198.298C1060.61 198.183 1060.64 198.055 1060.64 197.926C1060.64 197.796 1060.61 197.668 1060.55 197.553C1060.49 197.438 1060.4 197.339 1060.3 197.264C1059.84 196.88 1059.58 197.264 1059.3 197.635C1059.02 197.931 1058.73 198.206 1058.41 198.46C1057.1 198.46 1055.71 199.052 1054.51 198.17L1050.67 204.105C1051.19 204.291 1051.75 204.442 1051.91 205.186Z" fill="#2483A4"/>
<path d="M1053.76 207.184C1053.66 206.99 1053.52 206.82 1053.35 206.684C1053.18 206.548 1052.98 206.449 1052.77 206.394C1052.56 206.339 1052.34 206.33 1052.13 206.366C1051.91 206.402 1051.71 206.482 1051.53 206.603C1051.12 206.848 1050.8 207.226 1050.64 207.674C1050.47 208.122 1050.47 208.613 1050.62 209.066C1050.88 209.602 1050.97 210.201 1050.9 210.792C1050.83 211.382 1050.59 211.94 1050.21 212.399C1049.85 212.864 1049.75 213.793 1050.69 214.99C1051.26 213.773 1051.75 212.519 1052.15 211.238C1052.4 210.308 1051.83 209.124 1053.18 208.636C1053.98 208.427 1054.17 207.939 1053.76 207.184Z" fill="#2483A4"/>
<path d="M1045.2 223.295C1045.75 223.527 1046.45 223.829 1046.7 223.005C1047.04 221.843 1046.17 221.274 1045.41 220.681C1044.88 220.31 1044.46 220.681 1044.25 221.274C1044.16 221.467 1044.11 221.678 1044.11 221.893C1044.1 222.107 1044.15 222.32 1044.24 222.514C1044.33 222.708 1044.47 222.879 1044.63 223.014C1044.8 223.15 1045 223.246 1045.2 223.295Z" fill="#2483A4"/>
<path d="M1040.58 226.269C1040.92 226.021 1041.2 225.695 1041.39 225.316C1041.91 223.783 1042.88 223.946 1044 224.515C1043.68 223.492 1042.42 223.469 1041.98 222.575C1041.54 223.341 1041.61 224.445 1040.53 224.793L1039.86 225.084C1039.66 225.223 1039.45 225.329 1039.22 225.398L1039.57 225.827C1039.67 225.96 1039.75 226.118 1039.78 226.285C1039.82 226.453 1039.81 226.627 1039.76 226.791V226.884C1040.07 226.724 1040.34 226.516 1040.58 226.269Z" fill="#2483A4"/>
<path d="M1077.47 224.468C1078.23 223.644 1077.63 222.889 1076.63 222.552C1075.61 222.552 1075.18 223.237 1074.9 224.097C1074.84 226.13 1074.65 228.159 1074.35 230.172C1074.41 230.086 1074.48 230.008 1074.56 229.939L1076.56 228.406C1076.38 227.725 1076.37 227.011 1076.53 226.325C1076.69 225.639 1077.01 225.002 1077.47 224.468Z" fill="#2483A4"/>
<path d="M1071.4 236.805C1070 236.735 1069.9 237.966 1069.51 238.884C1069.41 239.257 1069.19 239.59 1068.89 239.835C1068.59 240.081 1068.22 240.227 1067.84 240.255C1067.52 240.91 1067.41 241.65 1067.54 242.369C1069.42 242.822 1070.88 244.169 1070.21 245.853C1069.84 246.976 1069.68 248.158 1069.74 249.338C1070.73 249.629 1071.07 250.198 1070.74 251.046L1070.95 251.197C1071.23 251.03 1071.43 250.764 1071.51 250.453C1071.6 250.142 1071.57 249.81 1071.42 249.524C1070.78 247.782 1073.15 246.69 1072.39 244.947C1074.61 245.191 1073.75 243.275 1074.24 242.322C1074.35 242.054 1074.52 241.809 1074.73 241.602L1074.45 236.433C1074.15 237.402 1073.55 238.249 1072.73 238.849C1071.89 238.454 1072.72 236.874 1071.4 236.805Z" fill="#2483A4"/>
<path d="M1071.09 234.644C1071.58 234.91 1072.14 235.022 1072.69 234.966C1073.24 234.91 1073.77 234.688 1074.19 234.33L1074.33 234.214L1074.16 230.857C1073.63 232.452 1072.54 233.799 1071.09 234.644Z" fill="#2483A4"/>
<path d="M1063.69 243.612C1063.2 243.905 1062.65 244.092 1062.08 244.16C1061.51 244.228 1060.93 244.176 1060.39 244.007L1063.7 246.33C1064.42 245.679 1064.56 244.854 1063.69 243.612Z" fill="#2483A4"/>
<path d="M1063.69 243.612C1065.44 242.125 1066.32 244.03 1067.69 244.936C1067.63 243.844 1067.59 243.1 1067.54 242.369C1065.29 241.335 1066.83 240.835 1067.84 240.254C1068.28 239.737 1068.67 239.177 1069 238.582C1069.32 237.873 1070.11 237.014 1069 236.34C1067.9 235.666 1067.13 236.805 1067.05 237.362C1066.73 239.488 1064.73 240.243 1063.79 241.788C1063.51 242.229 1063.07 242.171 1062.63 242.078C1062.4 242.171 1062.17 242.252 1061.95 242.357C1061.56 244.134 1063.16 243.124 1063.69 243.612Z" fill="#2483A4"/>
<path d="M1069.77 249.396C1069.64 249.652 1069.53 249.915 1069.43 250.186L1070.77 251.104C1071.06 250.256 1070.72 249.687 1069.77 249.396Z" fill="#2483A4"/>
<path d="M1035.87 246.841C1035.48 246.953 1035.11 247.143 1034.79 247.398C1034.47 247.653 1034.21 247.969 1034.01 248.328C1034.16 248.477 1034.35 248.579 1034.56 248.618C1034.77 248.657 1034.98 248.633 1035.17 248.548L1037.65 247.596C1037.04 247.189 1036.52 246.736 1035.87 246.841Z" fill="#2483A4"/>
<path d="M1044.22 244.727C1043.95 244.787 1043.67 244.764 1043.41 244.66C1043.16 244.556 1042.94 244.377 1042.78 244.146C1042.54 244.727 1042.26 245.307 1042.05 245.877L1044.07 245.098C1044.13 244.971 1044.18 244.854 1044.22 244.727Z" fill="#2483A4"/>
<path d="M1034.93 246.678C1035 246.568 1035.04 246.445 1035.06 246.317C1035.08 246.188 1035.07 246.057 1035.03 245.934C1034.99 245.81 1034.92 245.696 1034.84 245.6C1034.75 245.504 1034.64 245.428 1034.52 245.377H1034.35L1033.77 247.34C1033.76 247.437 1033.76 247.534 1033.77 247.631C1034.25 247.45 1034.66 247.115 1034.93 246.678Z" fill="#2483A4"/>
<path d="M1074.02 227.395C1074.05 227.634 1074.02 227.877 1073.94 228.103C1073.85 228.329 1073.72 228.531 1073.54 228.695C1073.37 228.858 1073.15 228.977 1072.92 229.042C1072.69 229.107 1072.44 229.116 1072.21 229.068C1070.99 228.871 1071.05 228.069 1071.42 227.163C1070.33 227.384 1069.75 226.896 1069.98 225.827C1070.04 225.585 1070.15 225.357 1070.3 225.157C1070.45 224.958 1070.64 224.791 1070.86 224.668C1071.07 224.544 1071.31 224.465 1071.56 224.437C1071.81 224.409 1072.06 224.431 1072.3 224.503C1073.34 224.817 1072.3 225.746 1072.3 226.408C1072.56 226.305 1072.8 226.145 1072.99 225.939C1073.18 225.734 1073.32 225.488 1073.4 225.22C1073.48 224.953 1073.5 224.67 1073.46 224.393C1073.42 224.116 1073.32 223.852 1073.16 223.62C1072.98 223.334 1072.88 223.006 1072.86 222.668C1072.84 222.33 1072.92 221.994 1073.07 221.692C1072.3 221.692 1071.57 222.284 1070.75 221.889C1070.2 222.749 1069.58 223.585 1069.13 224.491C1068.68 225.397 1068.14 225.305 1067.41 225.003C1066.68 224.701 1066.25 224.282 1066.33 223.469C1066.34 223.294 1066.38 223.122 1066.47 222.97C1066.56 222.817 1066.68 222.687 1066.83 222.592C1066.97 222.498 1067.14 222.44 1067.32 222.425C1067.49 222.41 1067.67 222.437 1067.83 222.505C1068.99 222.981 1069.73 221.889 1070.75 221.889C1071.23 220.982 1071.49 219.969 1071.49 218.939C1070.66 219.485 1069.97 220.008 1069.17 220.426C1068 221.041 1067.13 221.111 1067.24 219.38C1064.76 220.484 1065.08 223.69 1062.95 225.119C1062.61 225.351 1063.33 226.118 1063.88 226.42C1064.43 226.722 1064.72 227.14 1064.26 227.372C1063.3 227.838 1062.28 228.17 1061.23 228.36C1060.36 228.545 1060.6 227.512 1060.19 227.198C1058.57 229.579 1059.45 232.576 1058.22 235.085C1057.84 235.875 1058.34 236.653 1059.32 236.746C1060.29 236.839 1060.35 237.467 1060.36 238.21C1060.37 238.953 1059.66 239 1059.09 239.162C1057.97 239.579 1057 240.319 1056.29 241.288L1057.61 242.194C1057.4 240.835 1057.61 239.952 1059.87 240.893C1061.32 241.486 1062.88 239.883 1062.35 239.011C1060.44 235.933 1062.49 234.772 1064.41 233.354C1064.2 233.158 1064.04 232.901 1063.96 232.617C1063.89 232.332 1063.89 232.032 1063.98 231.751C1064.17 231.217 1064.25 230.59 1064.97 230.439C1065.18 230.413 1065.4 230.464 1065.58 230.58C1065.75 230.697 1065.89 230.873 1065.95 231.078C1066.28 231.821 1065.74 232.088 1065.24 232.448C1064.93 232.719 1064.66 233.023 1064.41 233.354L1066.4 233.715C1066.7 233.746 1066.98 233.89 1067.19 234.118C1067.39 234.346 1067.5 234.641 1067.49 234.946C1067.49 235.469 1067.36 236.107 1066.87 236.224C1064.25 236.665 1063.85 238.547 1063.6 240.719C1063.6 241.219 1062.93 241.66 1062.57 242.125C1063 242.218 1063.44 242.276 1063.73 241.834C1064.7 240.289 1066.67 239.511 1066.99 237.408C1067.07 236.851 1067.83 235.713 1068.94 236.386C1070.06 237.06 1069.27 237.92 1068.94 238.628C1068.61 239.223 1068.23 239.784 1067.78 240.301C1068.17 240.274 1068.54 240.127 1068.84 239.882C1069.14 239.636 1069.35 239.304 1069.46 238.93C1069.85 238.047 1069.94 236.781 1071.35 236.851C1072.75 236.921 1071.84 238.5 1072.67 238.953C1073.49 238.354 1074.09 237.507 1074.39 236.537L1074.28 234.214L1074.14 234.33C1073.71 234.688 1073.19 234.91 1072.63 234.966C1072.08 235.022 1071.52 234.91 1071.04 234.644C1072.49 233.799 1073.58 232.452 1074.1 230.857C1074.09 230.617 1074.16 230.379 1074.3 230.183C1074.6 228.17 1074.78 226.142 1074.85 224.108C1074.26 225.102 1073.98 226.243 1074.02 227.395Z" fill="#2483A4"/>
<path d="M1056.1 236.084C1055.48 236.142 1054.68 236.352 1054.84 237.025C1055.65 240.336 1053.12 240.51 1051.11 241.195C1050.75 241.312 1050.23 241.707 1050.05 241.102C1049.97 240.824 1050.4 240.394 1050.61 240.022C1049.83 240.022 1049.1 240.615 1048.29 240.208C1048.11 240.706 1048.07 241.24 1048.15 241.761C1048.23 242.282 1048.44 242.774 1048.76 243.193C1050.11 242.833 1051.36 241.253 1052.72 241.776L1054.95 240.928C1056.06 239.488 1055.19 237.548 1056.1 236.084Z" fill="#2483A4"/>
<path d="M1080.66 223.016C1080.66 222.888 1080.99 222.679 1080.95 222.633C1078.91 219.322 1082.61 218.451 1083.58 216.418C1080.98 216.929 1078.79 215.048 1076.26 215.152C1076.89 215.57 1078.23 215.489 1077.7 216.72C1077.56 217.165 1077.32 217.569 1076.98 217.895C1076.65 218.221 1076.24 218.46 1075.8 218.591C1074.88 218.742 1074.63 218.196 1074.81 217.359C1074.61 217.389 1074.42 217.477 1074.26 217.613C1074.11 217.75 1074 217.928 1073.95 218.126C1074.04 219.067 1075.38 218.916 1075.48 219.868C1075.92 221.181 1077.57 220.798 1078.25 221.843C1078.04 222.819 1077.08 222.017 1076.63 222.552C1077.63 222.888 1078.23 223.643 1077.47 224.468C1077.01 225.002 1076.69 225.639 1076.53 226.325C1076.37 227.011 1076.38 227.725 1076.56 228.406L1078.79 226.687C1079.5 225.502 1080.6 224.445 1080.66 223.016ZM1078.91 220.124C1078.76 220.388 1078.51 220.583 1078.21 220.666C1077.92 220.748 1077.61 220.712 1077.34 220.565C1076.93 220.356 1076.56 220.031 1076.99 219.578C1077.19 219.35 1077.44 219.179 1077.72 219.085C1078.01 218.99 1078.31 218.976 1078.61 219.044C1079 219.334 1079.25 219.671 1078.91 220.124Z" fill="#2483A4"/>
<path d="M1084.15 220.554C1084.66 219.276 1085.17 217.987 1085.7 216.709L1084.26 216.14L1083.58 216.418C1082.62 218.451 1078.94 219.322 1080.96 222.633C1080.96 222.633 1080.68 222.889 1080.67 223.016C1080.67 224.445 1079.5 225.502 1078.8 226.687L1082.64 223.737C1082.51 223.615 1082.42 223.459 1082.38 223.289C1082.34 223.118 1082.35 222.938 1082.41 222.772C1082.68 221.611 1083.65 222.087 1084.43 222.354L1084.57 222.25L1084.71 221.901C1084.57 221.861 1084.45 221.792 1084.35 221.698C1084.24 221.604 1084.16 221.489 1084.11 221.36C1084.06 221.231 1084.03 221.092 1084.04 220.952C1084.05 220.813 1084.08 220.677 1084.15 220.554Z" fill="#2483A4"/>
<path d="M1059.16 239.116C1059.73 238.953 1060.43 239.046 1060.43 238.164C1060.43 237.281 1060.36 236.804 1059.38 236.7C1058.41 236.595 1057.91 235.829 1058.29 235.039C1059.52 232.53 1058.64 229.533 1060.26 227.152C1059.09 225.99 1058.39 226.966 1058.4 227.907C1058.4 230.787 1054.56 232.623 1056.27 235.898C1056.27 235.898 1056.17 236.026 1056.11 236.084C1055.19 237.548 1056.11 239.488 1054.95 240.928H1055.02C1055.18 240.866 1055.35 240.844 1055.53 240.864C1055.7 240.885 1055.86 240.946 1056 241.044L1056.34 241.277C1057.05 240.291 1058.03 239.538 1059.16 239.116ZM1057 234.051C1056.8 233.985 1056.63 233.843 1056.53 233.656C1056.42 233.468 1056.39 233.249 1056.45 233.041C1056.46 232.912 1056.51 232.789 1056.58 232.681C1056.65 232.574 1056.75 232.484 1056.86 232.42C1056.97 232.356 1057.1 232.318 1057.23 232.311C1057.36 232.304 1057.49 232.327 1057.61 232.379C1057.81 232.436 1057.99 232.571 1058.09 232.756C1058.2 232.941 1058.23 233.16 1058.18 233.366C1058.16 233.434 1058.14 233.5 1058.12 233.564C1058.03 233.771 1057.86 233.936 1057.66 234.026C1057.45 234.117 1057.22 234.126 1057 234.051Z" fill="#2483A4"/>
<path d="M1050.43 232.042C1050.57 231.624 1051.51 232.042 1052.06 232.228L1052.27 231.763C1050.63 230.439 1049.37 231.833 1047.7 232.704C1047.95 231.287 1048.05 230.09 1049.25 229.835C1049.85 229.583 1050.53 229.543 1051.16 229.72C1051.79 229.897 1052.34 230.281 1052.73 230.811L1053.12 229.847C1052.64 229.545 1051.63 229.579 1051.78 228.94C1051.93 228.302 1052.76 228.046 1053.36 227.779C1054.3 227.407 1055.74 228.22 1056.09 226.548C1055.32 226.478 1054.14 226.989 1054.36 225.479C1054.49 224.619 1055.29 223.911 1056.01 224.19C1057.39 224.735 1056.23 225.734 1056.1 226.513L1056.58 226.71L1057.55 224.317C1056.09 222.621 1055.02 223.225 1053.96 224.828L1053.63 225.328C1053.54 225.45 1053.45 225.566 1053.35 225.676C1053.27 225.789 1053.18 225.894 1053.08 225.99C1052.72 226.421 1052.23 226.725 1051.69 226.859C1051.14 226.992 1050.57 226.948 1050.05 226.733C1050.04 226.911 1050.04 227.09 1050.05 227.268C1049.97 227.125 1049.89 226.978 1049.83 226.826L1049.49 227.651C1048.21 228.813 1048.12 231.055 1045.77 231.403C1044.48 231.589 1044.61 232.832 1045.34 233.808L1046.51 233.715C1047.56 232.925 1049.72 234.249 1050.43 232.042Z" fill="#2483A4"/>
<path d="M1059.88 222.517C1061.38 224.062 1062.51 224.038 1063.37 221.855C1063.82 220.937 1064.12 219.958 1064.29 218.951C1064.43 217.626 1066.49 217.731 1066.46 216.337C1066.46 214.595 1064.05 216.802 1063.82 214.873C1063.67 213.712 1062.97 214.502 1062.66 214.873C1062.38 215.146 1062.16 215.473 1062.01 215.835C1061.86 216.197 1061.79 216.585 1061.8 216.976C1061.8 219.136 1060.79 220.298 1058.56 220.286C1059.11 220.983 1061.65 220.414 1059.88 222.517Z" fill="#2483A4"/>
<path d="M1072.97 217.743C1072.77 217.185 1072.53 216.638 1072.27 216.105C1072.12 215.839 1071.88 215.63 1071.6 215.511C1071.32 215.391 1071.01 215.367 1070.71 215.443C1070.15 215.535 1069.68 215.919 1069.72 216.465C1069.88 218.288 1068.56 218.788 1067.31 219.369C1067.2 221.1 1068.11 221.03 1069.23 220.414C1069.99 219.996 1070.69 219.473 1071.56 218.927C1071.56 219.957 1071.3 220.971 1070.81 221.878C1071.62 222.273 1072.35 221.692 1073.14 221.68C1074.04 220.345 1072.93 219.055 1072.97 217.743Z" fill="#2483A4"/>
<path d="M1051.06 233.378L1052.07 232.216C1051.52 232.007 1050.58 231.612 1050.44 232.03C1049.73 234.237 1047.57 232.913 1046.39 233.842C1048.71 234.261 1048.71 235.713 1047.92 237.42C1047.53 238.21 1046.9 238.861 1048.01 239.523C1047.74 237.583 1049.41 237.722 1050.34 237.862C1051.89 238.117 1050.78 239.232 1050.66 240.011L1053.18 237.885C1049.73 237.258 1048.87 235.84 1051.06 233.378Z" fill="#2483A4"/>
<path d="M1064.83 206.08C1065.2 206.417 1065.58 206.754 1065.99 207.126C1067.15 208.403 1068.12 207.881 1069.09 206.812L1067.93 203.501C1066.19 203.327 1065.8 205.163 1064.83 206.08Z" fill="#2483A4"/>
<path d="M1084.76 215.315C1084.84 215.454 1084.43 215.838 1084.25 216.116L1085.69 216.686C1086.08 215.954 1086.06 214.92 1087 214.572C1087.31 214.466 1087.6 214.338 1087.89 214.188L1084.66 213.317C1084.26 213.677 1084.15 214.235 1084.76 215.315Z" fill="#2483A4"/>
<path d="M1056.03 226.548C1055.68 228.22 1054.24 227.407 1053.3 227.779C1052.69 228.023 1051.83 228.429 1051.72 228.941C1051.6 229.452 1052.58 229.545 1053.05 229.847C1053.08 229.453 1053.14 229.064 1053.25 228.685C1054.83 228.685 1054.9 230.172 1055.5 231.438C1056.5 229.788 1055.5 228.069 1056.51 226.792L1056.04 226.594L1056.03 226.548Z" fill="#2483A4"/>
<path d="M1060.18 210.808C1060.1 210.906 1060.04 211.024 1060.01 211.15C1059.98 211.277 1059.98 211.409 1060.02 211.534C1060.05 211.659 1060.12 211.774 1060.21 211.868C1060.3 211.962 1060.41 212.033 1060.53 212.074C1060.73 212.142 1060.94 212.155 1061.14 212.112C1061.35 212.069 1061.54 211.971 1061.69 211.83C1062.57 211.075 1062.4 208.345 1061.44 207.521L1061.23 207.997C1061.01 208.979 1060.66 209.925 1060.18 210.808Z" fill="#2483A4"/>
<path d="M1074.81 217.359C1074.6 218.196 1074.88 218.742 1075.8 218.591C1076.25 218.46 1076.65 218.221 1076.99 217.895C1077.32 217.569 1077.56 217.165 1077.7 216.72C1078.24 215.489 1076.89 215.559 1076.26 215.152C1075.55 215.71 1075.04 216.485 1074.81 217.359Z" fill="#2483A4"/>
<path d="M1073.06 221.68C1073.83 221.611 1074.38 221.367 1074.38 220.437C1074.38 219.508 1074.93 219.717 1075.48 219.857C1075.37 218.904 1074.04 219.055 1073.94 218.114L1072.97 217.731C1072.92 219.055 1074.04 220.345 1073.06 221.68Z" fill="#2483A4"/>
<path d="M1052.25 231.74C1052.56 231.949 1052.89 232.46 1053.25 231.891C1053.47 231.575 1053.58 231.187 1053.53 230.801C1053.49 230.416 1053.31 230.059 1053.02 229.8L1052.63 230.764C1053.05 231.322 1052.43 231.438 1052.25 231.74Z" fill="#2483A4"/>
<path d="M1084.56 222.285L1084.92 222.006L1084.7 221.936L1084.56 222.285Z" fill="#2483A4"/>
<path d="M1088.84 218.962L1089.34 218.579C1089.43 218.374 1089.55 218.188 1089.71 218.033C1089.38 218.299 1089.08 218.612 1088.84 218.962Z" fill="#2483A4"/>
<path d="M1085.69 216.709C1085.17 217.987 1084.66 219.276 1084.15 220.554C1084.74 220.124 1085.2 219.535 1085.48 218.855C1085.75 218.174 1085.82 217.43 1085.69 216.709Z" fill="#2483A4"/>
<path d="M1057.69 193.244L1056.92 194.406C1057.29 194.106 1057.56 193.701 1057.69 193.244Z" fill="#2483A4"/>
<path d="M1058.39 198.46C1057.23 198.239 1056.2 197.124 1054.91 197.461L1054.44 198.17C1055.69 199.052 1057.08 198.437 1058.39 198.46Z" fill="#2483A4"/>
<path d="M1057.13 205.778C1056.05 206.115 1056.13 207.219 1055.68 207.985C1056.76 207.637 1056.68 206.533 1057.13 205.778Z" fill="#2483A4"/>
<path d="M1063.36 190.921L1062.99 189.864C1062.84 190.265 1062.75 190.683 1062.71 191.107L1063.36 190.921Z" fill="#2483A4"/>
<path d="M1033.17 211.203C1034.06 211.447 1035.33 212.597 1035.17 210.355C1034.14 209.797 1033.48 210.076 1033.17 211.203Z" fill="#2483A4"/>
<path d="M1046.86 240.696C1046.97 240.696 1047.02 240.208 1046.94 240.011C1046.13 238.062 1045.94 235.916 1046.38 233.854L1045.22 233.947C1045.28 234.235 1045.28 234.533 1045.21 234.82C1045.14 235.106 1045.01 235.372 1044.81 235.598C1044.62 235.823 1044.38 236.001 1044.11 236.118C1043.84 236.234 1043.55 236.287 1043.25 236.27C1042.09 236.27 1042.48 235.283 1042.71 234.563L1041.08 234.458C1041.08 234.807 1041.08 235.155 1041.08 235.492C1041.2 236.433 1039.07 236.99 1040.5 238.036C1041.28 238.593 1042.24 239.407 1043.5 238.396C1044.16 237.862 1044.31 238.965 1044.18 239.232C1043.27 241.068 1044.81 242.868 1044.18 244.68C1044.85 244.796 1045.12 243.124 1046.01 244.297C1045.67 242.984 1044.79 241.544 1046.86 240.696Z" fill="#2483A4"/>
<path d="M1042.19 232.925C1041.02 232.693 1041.41 233.935 1041.09 234.505L1042.72 234.609C1042.94 233.901 1043.06 233.076 1042.19 232.925Z" fill="#2483A4"/>
<path d="M1052.17 223.609C1052.69 223.388 1053.57 223.26 1053.33 222.517C1053.1 221.773 1052.29 221.739 1051.6 221.82C1050.03 222.029 1048.88 224.236 1049.46 226.373C1049.55 226.736 1049.7 227.084 1049.88 227.407C1049.87 227.229 1049.87 227.051 1049.88 226.873C1049.81 226.145 1050 225.414 1050.42 224.814C1050.84 224.214 1051.46 223.787 1052.17 223.609Z" fill="#2483A4"/>
<path d="M1058.55 220.333C1057.76 221.808 1058.84 222.145 1059.88 222.517C1061.65 220.414 1059.11 220.984 1058.55 220.333Z" fill="#2483A4"/>
<path d="M1074.42 220.449C1074.42 221.378 1073.86 221.611 1073.09 221.692C1072.94 221.994 1072.87 222.33 1072.88 222.668C1072.9 223.006 1073 223.334 1073.19 223.62C1073.34 223.852 1073.45 224.116 1073.49 224.393C1073.53 224.67 1073.51 224.953 1073.42 225.22C1073.34 225.488 1073.2 225.734 1073.01 225.939C1072.82 226.145 1072.59 226.305 1072.33 226.408L1071.44 227.163C1071.06 228.069 1071.01 228.871 1072.23 229.068C1072.47 229.116 1072.71 229.107 1072.94 229.042C1073.18 228.977 1073.39 228.858 1073.57 228.695C1073.74 228.531 1073.88 228.329 1073.96 228.103C1074.05 227.877 1074.07 227.634 1074.05 227.395C1074.01 226.234 1074.32 225.088 1074.93 224.096C1075.21 223.237 1075.64 222.563 1076.66 222.552C1077.05 222.017 1078.06 222.819 1078.27 221.843C1077.6 220.798 1075.95 221.181 1075.51 219.868C1074.93 219.729 1074.42 219.671 1074.42 220.449Z" fill="#2483A4"/>
<path d="M1067.54 242.369C1067.42 241.65 1067.52 240.91 1067.84 240.255C1066.83 240.87 1065.29 241.335 1067.54 242.369Z" fill="#2483A4"/>
<path d="M1048.78 243.193C1048.78 243.236 1048.78 243.279 1048.78 243.321L1052.79 241.776C1051.38 241.253 1050.12 242.833 1048.78 243.193Z" fill="#2483A4"/>
<path d="M1044.23 244.727C1044.23 244.854 1044.13 244.971 1044.07 245.098L1046.05 244.343C1045.19 243.193 1044.91 244.843 1044.23 244.727Z" fill="#2483A4"/>
<path d="M1063.7 243.611C1063.16 243.124 1061.56 244.134 1061.97 242.357C1060.93 242.45 1059.94 242.903 1058.91 242.984L1060.4 244.006C1060.94 244.176 1061.52 244.228 1062.09 244.16C1062.66 244.092 1063.2 243.905 1063.7 243.611Z" fill="#2483A4"/>
<path d="M1062.63 242.032C1062.99 241.567 1063.61 241.126 1063.66 240.626C1063.91 238.477 1064.31 236.572 1066.93 236.131C1067.43 236.049 1067.58 235.376 1067.56 234.853C1067.56 234.549 1067.45 234.253 1067.25 234.025C1067.05 233.798 1066.77 233.654 1066.46 233.622L1064.48 233.262C1062.55 234.679 1060.5 235.84 1062.41 238.919C1062.94 239.79 1061.39 241.393 1059.94 240.8C1057.61 239.86 1057.46 240.8 1057.67 242.101L1058.9 242.938C1059.94 242.856 1060.92 242.403 1061.96 242.31C1062.18 242.252 1062.41 242.171 1062.63 242.032Z" fill="#2483A4"/>
<path d="M1048.3 240.208C1048.2 239.987 1048.1 239.755 1048.01 239.534C1046.85 238.872 1047.52 238.222 1047.92 237.432C1048.76 235.724 1048.71 234.272 1046.39 233.854C1045.95 235.916 1046.14 238.062 1046.94 240.011C1047.02 240.208 1046.94 240.65 1046.86 240.696C1044.79 241.544 1045.7 243.019 1046.07 244.343L1048.72 243.321C1048.72 243.279 1048.72 243.236 1048.72 243.193C1048.41 242.769 1048.21 242.274 1048.14 241.753C1048.06 241.232 1048.12 240.702 1048.3 240.208Z" fill="#2483A4"/>
<path d="M1067.85 222.494C1067.69 222.426 1067.51 222.398 1067.34 222.413C1067.16 222.428 1066.99 222.486 1066.85 222.581C1066.7 222.676 1066.58 222.805 1066.49 222.958C1066.4 223.111 1066.36 223.282 1066.35 223.458C1066.22 224.271 1066.76 224.701 1067.43 224.991C1068.1 225.281 1068.72 225.281 1069.15 224.48C1069.58 223.678 1070.22 222.738 1070.76 221.878C1069.78 221.878 1069.03 222.97 1067.85 222.494Z" fill="#2483A4"/>
<path d="M1050.28 237.873C1049.4 237.734 1047.73 237.594 1047.96 239.534C1048.05 239.755 1048.15 239.987 1048.25 240.208C1049.05 240.615 1049.79 240.034 1050.57 240.022C1050.73 239.244 1051.84 238.129 1050.28 237.873Z" fill="#2483A4"/>
<path d="M1072.34 224.503C1072.1 224.431 1071.84 224.409 1071.6 224.437C1071.35 224.465 1071.11 224.544 1070.89 224.668C1070.67 224.791 1070.48 224.958 1070.33 225.157C1070.18 225.357 1070.07 225.585 1070.01 225.827C1069.78 226.896 1070.36 227.384 1071.45 227.163L1072.34 226.408C1072.36 225.769 1073.37 224.817 1072.34 224.503Z" fill="#2483A4"/>
<path d="M1066.01 231.031C1065.95 230.827 1065.82 230.651 1065.64 230.534C1065.46 230.417 1065.25 230.367 1065.04 230.392C1064.32 230.497 1064.24 231.171 1064.05 231.705C1063.96 231.985 1063.95 232.286 1064.03 232.57C1064.1 232.855 1064.26 233.111 1064.48 233.308C1064.72 232.977 1065 232.673 1065.31 232.402C1065.81 232.042 1066.35 231.775 1066.01 231.031Z" fill="#2483A4"/>
<path d="M1078.6 219.044C1078.31 218.976 1078.01 218.991 1077.72 219.085C1077.44 219.179 1077.18 219.35 1076.99 219.578C1076.56 220.031 1076.93 220.356 1077.34 220.565C1077.61 220.712 1077.92 220.748 1078.21 220.666C1078.51 220.583 1078.76 220.388 1078.91 220.124C1079.24 219.671 1079 219.334 1078.6 219.044Z" fill="#2483A4"/>
<path d="M1082.4 222.772C1082.35 222.938 1082.34 223.118 1082.38 223.289C1082.42 223.459 1082.51 223.615 1082.64 223.737L1084.43 222.354C1083.65 222.087 1082.67 221.622 1082.4 222.772Z" fill="#2483A4"/>
<path d="M1057.55 232.379C1057.43 232.327 1057.3 232.304 1057.17 232.311C1057.04 232.318 1056.91 232.356 1056.8 232.42C1056.69 232.484 1056.59 232.574 1056.52 232.681C1056.45 232.789 1056.4 232.912 1056.38 233.041C1056.33 233.249 1056.36 233.468 1056.46 233.656C1056.57 233.843 1056.74 233.985 1056.94 234.051C1057.15 234.116 1057.38 234.102 1057.57 234.012C1057.77 233.922 1057.93 233.763 1058.02 233.564C1058.05 233.5 1058.07 233.434 1058.08 233.366C1058.14 233.164 1058.11 232.949 1058.01 232.765C1057.91 232.582 1057.75 232.443 1057.55 232.379Z" fill="#2483A4"/>
<path d="M1052.66 230.787C1052.27 230.258 1051.72 229.873 1051.09 229.696C1050.46 229.519 1049.78 229.56 1049.18 229.812C1048.01 230.067 1047.87 231.264 1047.63 232.681C1049.3 231.81 1050.56 230.416 1052.2 231.74C1052.43 231.438 1053.06 231.322 1052.66 230.787Z" fill="#2483A4"/>
<path d="M1056.03 226.548C1056.15 225.734 1057.32 224.735 1055.93 224.224C1055.21 223.946 1054.41 224.654 1054.28 225.514C1054.06 227.024 1055.25 226.513 1056.01 226.582L1056.03 226.548Z" fill="#2483A4"/>
<path d="M616.592 222.958L618.984 189.074C619.005 188.801 618.958 188.527 618.849 188.276C618.74 188.025 618.571 187.805 618.357 187.634L591.803 166.458C591.556 166.259 591.369 165.995 591.263 165.696C591.158 165.397 591.138 165.074 591.205 164.764C591.273 164.454 591.425 164.169 591.646 163.941C591.866 163.713 592.146 163.551 592.453 163.472L625.408 155.283C625.672 155.216 625.915 155.085 626.118 154.903C626.32 154.721 626.475 154.493 626.57 154.238L638.511 122.445C638.619 122.147 638.81 121.885 639.06 121.691C639.311 121.496 639.611 121.376 639.926 121.345C640.242 121.313 640.56 121.371 640.844 121.512C641.128 121.654 641.366 121.872 641.531 122.143L659.513 150.962C659.659 151.194 659.859 151.386 660.095 151.524C660.332 151.661 660.598 151.74 660.872 151.752L694.802 153.285C695.114 153.31 695.412 153.419 695.665 153.603C695.918 153.786 696.116 154.035 696.236 154.324C696.356 154.612 696.394 154.928 696.346 155.237C696.298 155.545 696.166 155.835 695.964 156.073L674.114 182.07C673.937 182.281 673.813 182.531 673.755 182.801C673.696 183.07 673.704 183.349 673.777 183.615L682.815 216.349C682.903 216.66 682.901 216.99 682.81 217.3C682.718 217.61 682.54 217.888 682.297 218.101C682.053 218.314 681.754 218.453 681.435 218.503C681.115 218.552 680.788 218.51 680.491 218.382L649.012 205.604C648.755 205.5 648.477 205.46 648.202 205.489C647.926 205.517 647.662 205.612 647.432 205.766L619.089 224.468C618.829 224.608 618.538 224.677 618.244 224.669C617.949 224.662 617.662 224.577 617.41 224.425C617.158 224.273 616.95 224.057 616.806 223.8C616.663 223.543 616.589 223.253 616.592 222.958Z" fill="#2483A4"/>
<path d="M442.964 255.17L433.671 233.529C433.598 233.352 433.482 233.196 433.335 233.074C433.187 232.952 433.011 232.869 432.823 232.832L409.742 228.186C409.524 228.147 409.322 228.047 409.159 227.898C408.996 227.749 408.879 227.556 408.822 227.343C408.765 227.129 408.769 226.904 408.836 226.693C408.902 226.482 409.027 226.295 409.196 226.153L426.969 210.669C427.113 210.544 427.225 210.385 427.294 210.207C427.363 210.029 427.387 209.836 427.364 209.646L424.645 186.275C424.609 186.053 424.638 185.825 424.729 185.62C424.82 185.414 424.968 185.239 425.156 185.116C425.345 184.993 425.564 184.928 425.789 184.927C426.014 184.927 426.234 184.991 426.423 185.113L446.635 197.182C446.798 197.281 446.983 197.338 447.173 197.348C447.364 197.358 447.554 197.321 447.726 197.24L469.123 187.436C469.323 187.338 469.547 187.299 469.768 187.324C469.989 187.349 470.199 187.437 470.371 187.578C470.544 187.719 470.673 187.906 470.742 188.118C470.811 188.33 470.817 188.557 470.761 188.772L465.534 211.726C465.49 211.911 465.492 212.105 465.541 212.289C465.59 212.473 465.683 212.643 465.813 212.783L481.75 230.102C481.906 230.261 482.014 230.461 482.059 230.679C482.105 230.898 482.087 231.124 482.007 231.332C481.928 231.541 481.79 231.721 481.611 231.853C481.431 231.985 481.217 232.063 480.995 232.077L457.542 234.191C457.352 234.207 457.169 234.269 457.009 234.373C456.849 234.476 456.717 234.617 456.624 234.783L445.066 255.297C444.961 255.492 444.802 255.652 444.609 255.76C444.415 255.867 444.195 255.917 443.974 255.904C443.753 255.89 443.541 255.814 443.362 255.684C443.183 255.554 443.045 255.375 442.964 255.17Z" fill="#EEB13D"/>
<path d="M205.752 353.127L204.59 331.754C204.581 331.58 204.53 331.411 204.441 331.261C204.352 331.111 204.228 330.985 204.079 330.894L185.795 319.743C185.627 319.637 185.491 319.486 185.403 319.308C185.315 319.129 185.277 318.93 185.295 318.731C185.313 318.533 185.386 318.343 185.505 318.184C185.624 318.024 185.785 317.9 185.969 317.826L205.937 310.113C206.099 310.053 206.243 309.953 206.356 309.823C206.47 309.694 206.549 309.538 206.588 309.37L211.56 288.554C211.605 288.359 211.704 288.181 211.846 288.04C211.988 287.899 212.166 287.801 212.361 287.756C212.556 287.711 212.759 287.722 212.948 287.787C213.137 287.852 213.304 287.969 213.43 288.124L226.951 304.758C227.061 304.892 227.203 304.996 227.362 305.063C227.522 305.13 227.696 305.157 227.869 305.142L249.196 303.434C249.395 303.417 249.596 303.456 249.775 303.547C249.953 303.638 250.102 303.778 250.205 303.95C250.308 304.122 250.361 304.319 250.357 304.52C250.353 304.72 250.293 304.916 250.183 305.084L238.567 323.054C238.47 323.199 238.411 323.367 238.394 323.541C238.378 323.716 238.405 323.891 238.474 324.053L246.698 343.8C246.774 343.984 246.798 344.186 246.765 344.383C246.732 344.58 246.645 344.764 246.513 344.914C246.382 345.064 246.21 345.174 246.019 345.232C245.828 345.289 245.625 345.292 245.432 345.24L224.744 339.746C224.577 339.7 224.402 339.696 224.234 339.735C224.066 339.773 223.91 339.853 223.78 339.966L207.517 353.906C207.363 354.033 207.176 354.115 206.978 354.142C206.78 354.169 206.578 354.141 206.395 354.06C206.212 353.98 206.055 353.85 205.941 353.685C205.827 353.52 205.762 353.327 205.752 353.127Z" fill="#93C2C9"/>
<path d="M52.9314 334.205L34.7872 307.999C34.6431 307.784 34.4478 307.607 34.2187 307.485C33.9896 307.364 33.7339 307.301 33.4746 307.302L1.58855 307.395C1.29184 307.392 1.00169 307.308 0.750416 307.15C0.499143 306.992 0.296605 306.767 0.165354 306.501C0.0341018 306.235 -0.0207124 305.938 0.00701474 305.642C0.0347419 305.347 0.143922 305.065 0.322399 304.828L19.6863 279.47C19.8409 279.266 19.9438 279.027 19.9863 278.774C20.0288 278.521 20.0096 278.262 19.9303 278.018L9.99856 247.712C9.90527 247.429 9.89321 247.126 9.96375 246.836C10.0343 246.547 10.1846 246.283 10.3976 246.075C10.6106 245.867 10.8777 245.723 11.1686 245.659C11.4594 245.595 11.7624 245.614 12.043 245.714L42.1285 256.261C42.372 256.347 42.6326 256.371 42.8878 256.333C43.1429 256.295 43.3848 256.194 43.5921 256.041L69.3333 237.234C69.5723 237.069 69.8522 236.972 70.1425 236.954C70.4327 236.936 70.7223 236.999 70.9797 237.134C71.2371 237.269 71.4525 237.472 71.6026 237.722C71.7526 237.971 71.8315 238.256 71.8307 238.547L71.1105 270.421C71.104 270.678 71.1598 270.933 71.273 271.163C71.3863 271.394 71.5538 271.594 71.761 271.746L97.6067 290.424C97.8465 290.598 98.0328 290.836 98.1447 291.11C98.2567 291.385 98.2897 291.685 98.2402 291.977C98.1907 292.27 98.0606 292.542 97.8645 292.764C97.6685 292.987 97.4142 293.15 97.1304 293.235L66.5919 302.435C66.3448 302.512 66.1198 302.647 65.9359 302.829C65.7519 303.011 65.6144 303.234 65.5348 303.481L55.7657 333.798C55.6748 334.083 55.5056 334.336 55.2775 334.529C55.0494 334.722 54.7716 334.847 54.4759 334.889C54.1802 334.932 53.8785 334.89 53.6054 334.769C53.3323 334.648 53.0987 334.452 52.9314 334.205Z" fill="#2483A4"/>
<path d="M1009.68 383.143L1010.57 369.436C1010.58 369.324 1010.57 369.211 1010.52 369.108C1010.48 369.004 1010.41 368.914 1010.32 368.844L999.528 360.329C999.438 360.248 999.372 360.143 999.337 360.028C999.301 359.912 999.296 359.789 999.323 359.671C999.35 359.553 999.408 359.444 999.491 359.356C999.574 359.267 999.679 359.203 999.795 359.168L1013.11 355.776C1013.21 355.752 1013.31 355.701 1013.4 355.628C1013.48 355.554 1013.54 355.462 1013.58 355.358L1018.35 342.464C1018.39 342.342 1018.47 342.234 1018.57 342.154C1018.67 342.074 1018.79 342.024 1018.92 342.011C1019.05 341.998 1019.18 342.021 1019.3 342.079C1019.41 342.136 1019.51 342.226 1019.58 342.336L1026.91 353.952C1026.97 354.047 1027.05 354.127 1027.15 354.183C1027.24 354.24 1027.35 354.272 1027.46 354.277L1041.19 354.823C1041.33 354.822 1041.46 354.861 1041.58 354.935C1041.69 355.008 1041.78 355.114 1041.83 355.238C1041.88 355.362 1041.9 355.499 1041.88 355.632C1041.85 355.765 1041.79 355.888 1041.69 355.985L1032.91 366.556C1032.84 366.641 1032.79 366.743 1032.76 366.852C1032.74 366.961 1032.74 367.075 1032.77 367.183L1036.49 380.402C1036.53 380.525 1036.53 380.657 1036.5 380.781C1036.47 380.906 1036.4 381.018 1036.3 381.105C1036.21 381.192 1036.09 381.25 1035.96 381.271C1035.83 381.293 1035.7 381.277 1035.58 381.227L1022.81 376.139C1022.7 376.098 1022.59 376.084 1022.48 376.096C1022.37 376.108 1022.26 376.147 1022.17 376.209L1010.75 383.747C1010.64 383.819 1010.52 383.86 1010.39 383.865C1010.26 383.87 1010.14 383.839 1010.03 383.777C1009.92 383.714 1009.82 383.621 1009.76 383.509C1009.7 383.397 1009.67 383.271 1009.68 383.143Z" fill="#93C2C9"/>
<path d="M791.692 156.468L788.754 146.618C788.731 146.539 788.689 146.467 788.633 146.409C788.576 146.35 788.506 146.306 788.428 146.281L778.648 143.121C778.557 143.09 778.476 143.035 778.415 142.962C778.353 142.888 778.313 142.799 778.299 142.705C778.285 142.61 778.296 142.513 778.333 142.425C778.37 142.336 778.431 142.26 778.508 142.204L786.965 136.396C787.033 136.347 787.089 136.282 787.128 136.208C787.166 136.133 787.186 136.05 787.185 135.966V125.697C787.183 125.6 787.207 125.505 787.257 125.421C787.306 125.338 787.379 125.27 787.465 125.227C787.552 125.183 787.649 125.164 787.745 125.174C787.842 125.183 787.934 125.219 788.01 125.279L796.141 131.517C796.207 131.57 796.286 131.605 796.369 131.619C796.452 131.633 796.538 131.626 796.618 131.598L806.387 128.415C806.477 128.387 806.573 128.384 806.665 128.406C806.756 128.429 806.84 128.477 806.906 128.544C806.972 128.612 807.018 128.696 807.039 128.788C807.061 128.88 807.056 128.976 807.026 129.066L803.61 138.765C803.587 138.843 803.581 138.925 803.593 139.005C803.605 139.086 803.635 139.162 803.68 139.23L809.744 147.535C809.799 147.614 809.832 147.706 809.839 147.802C809.845 147.898 809.825 147.994 809.781 148.079C809.736 148.164 809.669 148.235 809.587 148.285C809.504 148.335 809.41 148.361 809.314 148.36L799.034 148.104C798.95 148.106 798.868 148.126 798.793 148.165C798.719 148.203 798.654 148.258 798.604 148.325L792.587 156.642C792.527 156.713 792.449 156.766 792.361 156.797C792.274 156.828 792.18 156.834 792.089 156.817C791.998 156.799 791.913 156.757 791.843 156.696C791.774 156.635 791.722 156.556 791.692 156.468Z" fill="#2483A4"/>
<path d="M276.523 226.222C275.687 226.219 274.882 225.911 274.259 225.354C273.636 224.797 273.239 224.032 273.142 223.202L269.495 190.468L240.455 175.007C239.898 174.708 239.436 174.26 239.12 173.712C238.805 173.165 238.648 172.54 238.669 171.908C238.689 171.277 238.886 170.663 239.236 170.138C239.587 169.612 240.077 169.194 240.652 168.932L270.645 155.341L276.453 123.002C276.568 122.386 276.852 121.814 277.273 121.35C277.693 120.885 278.235 120.546 278.836 120.371C279.438 120.195 280.076 120.189 280.681 120.355C281.285 120.52 281.832 120.849 282.261 121.306L304.448 145.7L336.973 141.181C337.599 141.093 338.238 141.182 338.816 141.439C339.395 141.696 339.889 142.11 340.244 142.634C340.598 143.158 340.799 143.771 340.822 144.404C340.846 145.036 340.691 145.662 340.376 146.211L324.114 174.833L338.471 204.384C338.745 204.953 338.855 205.587 338.789 206.215C338.722 206.843 338.481 207.44 338.094 207.939C337.706 208.437 337.187 208.818 336.595 209.038C336.003 209.257 335.361 209.307 334.742 209.182L302.531 202.537L278.857 225.316C278.225 225.907 277.388 226.232 276.523 226.222ZM242.325 172.022L271.191 187.436C271.67 187.703 272.08 188.078 272.386 188.532C272.693 188.986 272.889 189.506 272.957 190.05L276.592 222.575L300.208 199.9C300.603 199.517 301.086 199.237 301.615 199.085C302.143 198.933 302.702 198.914 303.24 199.029L335.358 205.639L321.035 176.157C320.794 175.664 320.677 175.119 320.696 174.57C320.714 174.021 320.866 173.485 321.14 173.009L337.321 144.55L304.889 149.104C304.343 149.164 303.791 149.09 303.281 148.887C302.77 148.685 302.318 148.36 301.962 147.942L279.891 123.757L274.083 156.073C273.988 156.615 273.762 157.125 273.423 157.558C273.085 157.991 272.646 158.335 272.143 158.559L242.325 172.022Z" fill="#2483A4"/>
<path d="M1172.4 438.134H1171.92C1171.41 438.047 1170.93 437.817 1170.54 437.47C1170.15 437.123 1169.86 436.672 1169.72 436.171L1163.78 416.307L1144.03 409.93C1143.54 409.771 1143.09 409.476 1142.76 409.077C1142.42 408.679 1142.2 408.193 1142.13 407.676C1142.05 407.162 1142.11 406.634 1142.32 406.155C1142.52 405.676 1142.86 405.265 1143.29 404.97L1160.39 393.145V372.41C1160.39 371.887 1160.53 371.374 1160.81 370.93C1161.08 370.485 1161.48 370.127 1161.94 369.895C1162.41 369.664 1162.94 369.569 1163.46 369.621C1163.98 369.674 1164.47 369.871 1164.89 370.191L1181.3 382.772L1201.05 376.336C1201.54 376.181 1202.07 376.165 1202.57 376.293C1203.08 376.42 1203.53 376.684 1203.89 377.057C1204.26 377.429 1204.51 377.894 1204.62 378.401C1204.73 378.908 1204.7 379.436 1204.53 379.926L1197.65 399.487L1209.87 416.272C1210.19 416.693 1210.37 417.194 1210.41 417.716C1210.45 418.238 1210.34 418.76 1210.09 419.223C1209.84 419.676 1209.47 420.054 1209.03 420.318C1208.58 420.581 1208.07 420.72 1207.55 420.721L1186.83 420.222L1174.67 437.019C1174.4 437.37 1174.06 437.653 1173.67 437.847C1173.27 438.041 1172.84 438.139 1172.4 438.134ZM1146.45 406.979L1165.2 413.043C1165.63 413.181 1166.02 413.422 1166.34 413.746C1166.66 414.07 1166.89 414.467 1167.02 414.902L1172.66 433.778L1184.27 417.829C1184.54 417.467 1184.89 417.173 1185.3 416.971C1185.7 416.77 1186.14 416.665 1186.6 416.667L1206.34 417.144L1194.73 401.218C1194.46 400.85 1194.29 400.424 1194.22 399.974C1194.16 399.525 1194.2 399.067 1194.36 398.639L1200.88 380.054L1182.16 386.164C1181.73 386.306 1181.27 386.342 1180.82 386.267C1180.37 386.192 1179.95 386.009 1179.59 385.734L1163.87 373.804V393.551C1163.88 394.004 1163.78 394.451 1163.58 394.856C1163.38 395.26 1163.08 395.61 1162.71 395.875L1146.45 406.979Z" fill="#2483A4"/>
<path d="M66.901 434.718L61.3602 421.743C61.3153 421.637 61.2454 421.544 61.1563 421.471C61.0673 421.398 60.9618 421.348 60.8491 421.325L47.0144 418.595C46.884 418.572 46.763 418.512 46.6655 418.422C46.568 418.333 46.4981 418.217 46.464 418.089C46.4298 417.961 46.4329 417.826 46.4728 417.7C46.5126 417.573 46.5877 417.461 46.6891 417.376L57.3178 408.083C57.4025 408.008 57.4678 407.915 57.5083 407.809C57.5488 407.704 57.5631 407.591 57.5501 407.479L55.9239 393.458C55.9064 393.327 55.9264 393.194 55.9815 393.075C56.0367 392.955 56.1248 392.853 56.2355 392.781C56.3462 392.709 56.4751 392.67 56.607 392.669C56.739 392.668 56.8686 392.704 56.9809 392.773L69.1081 400.01C69.2089 400.061 69.3203 400.087 69.4333 400.087C69.5463 400.087 69.6577 400.061 69.7586 400.01L82.5943 394.132C82.7128 394.076 82.8448 394.055 82.9749 394.07C83.1051 394.086 83.2282 394.138 83.3301 394.221C83.432 394.303 83.5085 394.413 83.551 394.537C83.5934 394.661 83.6 394.794 83.57 394.922L80.4337 408.687C80.4095 408.8 80.4127 408.916 80.443 409.028C80.4733 409.139 80.5299 409.241 80.6079 409.326L90.1563 419.711C90.2432 419.807 90.3015 419.925 90.3249 420.052C90.3483 420.179 90.3358 420.311 90.2888 420.431C90.2418 420.552 90.1621 420.657 90.0587 420.735C89.9552 420.813 89.8322 420.86 89.7033 420.872L75.6479 422.08C75.5334 422.093 75.4234 422.132 75.3267 422.195C75.2299 422.257 75.149 422.341 75.0903 422.44L68.1207 434.742C68.056 434.846 67.9652 434.933 67.8571 434.992C67.749 435.051 67.6273 435.08 67.5042 435.078C67.3811 435.076 67.2607 435.041 67.155 434.978C67.0492 434.915 66.9616 434.826 66.901 434.718Z" fill="#EEB13D"/>
<path d="M403.025 85.0874L403.478 78.1178C403.48 78.0601 403.468 78.0027 403.444 77.9503C403.42 77.8979 403.384 77.8518 403.338 77.8158L397.832 73.5991C397.783 73.5586 397.746 73.5054 397.726 73.4454C397.705 73.3853 397.7 73.3207 397.714 73.2585C397.727 73.1962 397.757 73.1388 397.8 73.0924C397.844 73.046 397.899 73.0123 397.96 72.9951L404.698 71.2875C404.751 71.2712 404.799 71.2427 404.84 71.2045C404.88 71.1662 404.911 71.1191 404.93 71.0668L407.346 64.5502C407.37 64.4911 407.41 64.4398 407.461 64.4017C407.512 64.3636 407.573 64.3403 407.636 64.3343C407.7 64.3283 407.764 64.3399 407.821 64.3677C407.878 64.3955 407.927 64.4386 407.962 64.4922L411.667 70.3583C411.695 70.4081 411.735 70.4495 411.784 70.4782C411.833 70.5068 411.889 70.5216 411.946 70.5209L418.916 70.7997C418.98 70.8023 419.043 70.8229 419.097 70.8592C419.151 70.8955 419.193 70.946 419.22 71.0051C419.246 71.0643 419.256 71.1296 419.247 71.1939C419.239 71.2581 419.212 71.3187 419.171 71.3689L414.734 76.7122C414.697 76.7546 414.671 76.8054 414.659 76.8602C414.647 76.915 414.649 76.9719 414.664 77.0259L416.546 83.7051C416.564 83.7677 416.563 83.834 416.545 83.8965C416.527 83.959 416.492 84.0151 416.444 84.0587C416.395 84.1022 416.336 84.1313 416.272 84.1427C416.208 84.1541 416.142 84.1474 416.081 84.1233L409.634 81.5445C409.583 81.5214 409.528 81.5095 409.472 81.5095C409.416 81.5095 409.36 81.5214 409.309 81.5445L403.501 85.401C403.449 85.4246 403.392 85.4347 403.335 85.4302C403.279 85.4258 403.224 85.4071 403.176 85.3757C403.129 85.3444 403.09 85.3015 403.063 85.2511C403.037 85.2007 403.024 85.1444 403.025 85.0874Z" fill="#2483A4"/>
<path d="M1276.65 451.364L1273.71 444.499C1273.68 444.444 1273.65 444.394 1273.6 444.356C1273.55 444.317 1273.5 444.291 1273.44 444.279L1266.11 442.803C1266.04 442.792 1265.98 442.761 1265.93 442.713C1265.87 442.666 1265.84 442.605 1265.82 442.537C1265.8 442.469 1265.81 442.398 1265.83 442.332C1265.85 442.266 1265.89 442.207 1265.95 442.164L1271.57 437.239C1271.61 437.201 1271.65 437.152 1271.67 437.098C1271.69 437.043 1271.7 436.984 1271.7 436.926L1270.83 429.503C1270.82 429.433 1270.83 429.363 1270.86 429.3C1270.89 429.237 1270.94 429.183 1271 429.145C1271.06 429.106 1271.13 429.085 1271.2 429.082C1271.27 429.08 1271.33 429.097 1271.4 429.131L1277.81 432.965C1277.86 432.993 1277.92 433.008 1277.98 433.008C1278.04 433.008 1278.1 432.993 1278.16 432.965L1284.94 429.851C1285 429.821 1285.07 429.81 1285.14 429.818C1285.21 429.825 1285.28 429.853 1285.33 429.897C1285.39 429.94 1285.43 429.998 1285.45 430.064C1285.47 430.13 1285.48 430.201 1285.46 430.27L1283.8 437.553C1283.79 437.612 1283.79 437.674 1283.81 437.732C1283.83 437.791 1283.85 437.844 1283.89 437.89L1288.95 443.384C1289 443.435 1289.03 443.499 1289.04 443.568C1289.06 443.638 1289.05 443.709 1289.02 443.775C1289 443.841 1288.96 443.898 1288.9 443.94C1288.84 443.982 1288.77 444.007 1288.7 444.011L1281.27 444.685C1281.21 444.689 1281.15 444.709 1281.1 444.741C1281.05 444.774 1281.01 444.818 1280.98 444.871L1277.31 451.376C1277.28 451.44 1277.23 451.495 1277.17 451.533C1277.11 451.57 1277.04 451.59 1276.97 451.589C1276.9 451.587 1276.83 451.566 1276.78 451.526C1276.72 451.486 1276.67 451.43 1276.65 451.364Z" fill="#2483A4"/>
<path d="M1244.6 308.801L1258.24 277.705C1258.35 277.453 1258.4 277.177 1258.38 276.902C1258.37 276.626 1258.28 276.36 1258.14 276.125L1240.25 247.247C1240.08 246.978 1239.99 246.667 1240 246.351C1240 246.034 1240.09 245.724 1240.25 245.456C1240.42 245.187 1240.66 244.971 1240.95 244.832C1241.23 244.693 1241.55 244.636 1241.86 244.669L1275.65 248.037C1275.93 248.067 1276.2 248.028 1276.46 247.925C1276.72 247.821 1276.94 247.656 1277.12 247.445L1299.06 221.518C1299.26 221.277 1299.53 221.097 1299.83 221C1300.13 220.903 1300.46 220.892 1300.76 220.968C1301.07 221.044 1301.35 221.204 1301.57 221.431C1301.79 221.657 1301.94 221.941 1302.01 222.25L1309.25 255.425C1309.31 255.696 1309.43 255.948 1309.61 256.16C1309.79 256.373 1310.01 256.539 1310.27 256.645L1341.7 269.492C1342 269.611 1342.25 269.81 1342.43 270.066C1342.62 270.322 1342.73 270.624 1342.75 270.939C1342.78 271.255 1342.71 271.57 1342.56 271.85C1342.42 272.13 1342.2 272.363 1341.92 272.524L1312.56 289.657C1312.32 289.797 1312.12 289.993 1311.97 290.227C1311.83 290.462 1311.74 290.729 1311.72 291.005L1309.21 324.877C1309.19 325.195 1309.08 325.501 1308.9 325.76C1308.71 326.02 1308.46 326.221 1308.17 326.342C1307.87 326.464 1307.55 326.5 1307.23 326.446C1306.92 326.392 1306.63 326.251 1306.39 326.039L1281.03 303.446C1280.83 303.262 1280.58 303.133 1280.31 303.068C1280.04 303.003 1279.77 303.005 1279.5 303.074L1246.51 311.205C1246.2 311.278 1245.87 311.261 1245.57 311.155C1245.26 311.049 1244.99 310.859 1244.79 310.607C1244.59 310.355 1244.47 310.051 1244.44 309.731C1244.4 309.412 1244.46 309.089 1244.6 308.801Z" fill="#2483A4"/>
<path d="M937.812 110.236C936.952 110.231 936.125 109.908 935.489 109.33L910.2 86.0981L876.758 93.8111C876.131 93.9442 875.479 93.9017 874.875 93.6884C874.27 93.4752 873.736 93.0993 873.332 92.6022C872.927 92.1051 872.667 91.506 872.581 90.8708C872.495 90.2357 872.586 89.589 872.843 89.0021L887.096 57.7782L869.451 28.3664C869.13 27.8115 868.967 27.1787 868.982 26.5376C868.997 25.8965 869.189 25.2719 869.536 24.7327C869.883 24.1934 870.372 23.7604 870.95 23.4813C871.527 23.2022 872.17 23.0878 872.808 23.1508L906.913 27.0538L929.437 1.19645C929.863 0.720281 930.411 0.37039 931.023 0.18503C931.634 -0.00032964 932.285 -0.0140225 932.903 0.145449C933.522 0.30492 934.085 0.631415 934.531 1.08925C934.976 1.54708 935.288 2.11862 935.43 2.74139L942.261 36.4279L973.821 49.856C974.407 50.1161 974.91 50.5328 975.275 51.0602C975.639 51.5876 975.851 52.2052 975.887 52.8453C975.923 53.4853 975.782 54.1228 975.479 54.6878C975.176 55.2527 974.723 55.7232 974.17 56.0474L944.328 72.9139L941.308 107.088C941.255 107.732 941.021 108.348 940.633 108.864C940.244 109.38 939.717 109.775 939.113 110.004C938.699 110.166 938.256 110.245 937.812 110.236ZM910.212 82.6481C911.072 82.6532 911.899 82.9759 912.535 83.5542L937.823 106.786L940.843 72.5886C940.896 72.0295 941.083 71.4915 941.389 71.0202C941.694 70.549 942.109 70.1585 942.598 69.8821L972.474 53.004L940.843 39.5991C940.329 39.377 939.875 39.034 939.521 38.5992C939.167 38.1645 938.924 37.6507 938.811 37.1016L932.015 3.4732L909.48 29.3537C909.114 29.7784 908.65 30.1066 908.127 30.3091C907.604 30.5117 907.04 30.5825 906.483 30.5153L872.379 26.6123L890.081 56.0125C890.369 56.4943 890.536 57.0384 890.569 57.5986C890.601 58.1588 890.498 58.7185 890.267 59.2302L876.014 90.4657L909.48 82.741C909.72 82.6842 909.965 82.6531 910.212 82.6481Z" fill="#2483A4"/>
<path d="M130.2 523.512C129.855 523.516 129.512 523.448 129.195 523.312C128.877 523.175 128.593 522.973 128.359 522.718C128.125 522.464 127.948 522.163 127.839 521.835C127.73 521.507 127.691 521.16 127.726 520.817L128.957 507.319L118.503 498.653C118.15 498.362 117.886 497.979 117.741 497.545C117.596 497.112 117.576 496.647 117.682 496.202C117.789 495.758 118.018 495.353 118.344 495.032C118.67 494.712 119.079 494.489 119.525 494.39L132.744 491.382L137.762 478.79C137.932 478.366 138.216 477.997 138.584 477.726C138.952 477.455 139.388 477.292 139.843 477.256C140.299 477.22 140.755 477.312 141.161 477.521C141.567 477.731 141.907 478.049 142.141 478.441L149.111 490.057L162.632 490.94C163.087 490.971 163.525 491.128 163.895 491.394C164.266 491.66 164.555 492.024 164.73 492.445C164.905 492.866 164.959 493.328 164.886 493.779C164.813 494.229 164.616 494.65 164.316 494.994L155.383 505.193L158.729 518.342C158.843 518.785 158.83 519.25 158.693 519.686C158.555 520.121 158.298 520.509 157.95 520.806C157.603 521.103 157.179 521.296 156.728 521.363C156.276 521.431 155.814 521.37 155.395 521.188L142.931 515.857L131.501 523.14C131.11 523.382 130.66 523.51 130.2 523.512ZM122.406 497.341L131.698 505.007C132.001 505.262 132.238 505.586 132.39 505.952C132.542 506.318 132.603 506.715 132.57 507.11L131.478 519.063L141.63 512.662C141.971 512.441 142.363 512.308 142.768 512.275C143.174 512.243 143.581 512.312 143.953 512.476L154.989 517.204L152.026 505.588C151.929 505.203 151.927 504.799 152.02 504.413C152.113 504.026 152.298 503.668 152.561 503.369L160.46 494.344L148.484 493.565C148.091 493.539 147.711 493.42 147.374 493.218C147.037 493.016 146.752 492.737 146.544 492.404L140.399 482.089L135.95 493.24C135.805 493.609 135.571 493.937 135.269 494.194C134.967 494.451 134.606 494.63 134.219 494.715L122.406 497.341Z" fill="#2483A4"/>
<path d="M279.865 418.954C283.339 415.479 283.339 409.845 279.865 406.37C276.39 402.896 270.756 402.896 267.281 406.37C263.806 409.845 263.806 415.479 267.281 418.954C270.756 422.429 276.39 422.429 279.865 418.954Z" fill="#EEB13D"/>
<path d="M51.1411 654.25C51.4894 653.255 52.1249 652.385 52.9673 651.751C53.8097 651.117 54.8211 650.747 55.8738 650.688C56.9264 650.629 57.973 650.883 58.8813 651.418C59.7895 651.954 60.5186 652.746 60.9764 653.696C61.4342 654.646 61.6002 655.71 61.4533 656.754C61.3065 657.798 60.8534 658.775 60.1513 659.562C59.4493 660.348 58.5298 660.909 57.5091 661.173C56.4884 661.437 55.4123 661.393 54.4169 661.045C53.7554 660.815 53.1459 660.456 52.6232 659.989C52.1005 659.523 51.6749 658.958 51.3707 658.327C51.0665 657.695 50.8896 657.011 50.8502 656.311C50.8108 655.612 50.9097 654.911 51.1411 654.25Z" fill="#2483A4"/>
<path d="M1116.08 535.167C1116.87 530.317 1113.58 525.746 1108.73 524.959C1103.88 524.171 1099.3 527.465 1098.52 532.316C1097.73 537.167 1101.02 541.737 1105.87 542.525C1110.73 543.312 1115.3 540.018 1116.08 535.167Z" fill="#EEB13D"/>
<path d="M631.613 63.9463L625.177 50.4369C625.124 50.3281 625.046 50.2334 624.949 50.1608C624.852 50.0881 624.739 50.0394 624.62 50.0187L609.833 47.6955C609.695 47.6743 609.566 47.6147 609.46 47.5236C609.354 47.4325 609.276 47.3135 609.235 47.1802C609.194 47.0469 609.191 46.9047 609.227 46.7699C609.263 46.6351 609.336 46.513 609.438 46.4177L620.241 36.0911C620.33 36.0077 620.398 35.904 620.438 35.7886C620.479 35.6733 620.491 35.5499 620.473 35.4289L618.15 20.6417C618.126 20.5036 618.141 20.3615 618.194 20.2318C618.248 20.1022 618.337 19.9902 618.451 19.9088C618.565 19.8274 618.7 19.78 618.84 19.772C618.98 19.7639 619.119 19.7957 619.242 19.8635L632.403 27.0073C632.511 27.0615 632.63 27.0897 632.751 27.0897C632.872 27.0897 632.991 27.0615 633.1 27.0073L646.435 20.2119C646.56 20.1491 646.701 20.1225 646.841 20.1352C646.981 20.1479 647.115 20.1994 647.227 20.2839C647.339 20.3684 647.426 20.4825 647.476 20.6134C647.527 20.7444 647.541 20.8869 647.515 21.0251L644.785 35.7426C644.764 35.8616 644.771 35.9842 644.808 36.0995C644.844 36.2149 644.908 36.3197 644.994 36.4047L655.565 46.9985C655.664 47.0966 655.734 47.2206 655.766 47.3563C655.798 47.492 655.791 47.634 655.746 47.766C655.701 47.8981 655.62 48.0149 655.512 48.1031C655.404 48.1912 655.274 48.2472 655.135 48.2647L640.336 50.2278C640.215 50.2437 640.1 50.289 640.001 50.3599C639.902 50.4308 639.821 50.5251 639.767 50.6343L633.018 63.9696C632.961 64.1099 632.862 64.2295 632.735 64.3129C632.608 64.3964 632.459 64.4396 632.308 64.4371C632.156 64.4346 632.008 64.3864 631.885 64.2989C631.761 64.2113 631.666 64.0885 631.613 63.9463Z" fill="#EEB13D"/>
<path d="M896.631 287.787L878.046 283.954C877.894 283.925 877.738 283.933 877.59 283.977C877.442 284.022 877.308 284.102 877.198 284.21L863.479 297.371C863.352 297.492 863.193 297.576 863.02 297.613C862.848 297.65 862.668 297.639 862.502 297.58C862.336 297.521 862.19 297.417 862.079 297.279C861.968 297.142 861.898 296.976 861.876 296.801L859.762 277.89C859.743 277.737 859.688 277.591 859.601 277.464C859.514 277.336 859.398 277.232 859.262 277.159L842.5 268.191C842.344 268.107 842.214 267.981 842.125 267.827C842.036 267.673 841.993 267.497 841.999 267.319C842.005 267.142 842.06 266.969 842.159 266.821C842.258 266.674 842.397 266.557 842.559 266.484L859.878 258.631C860.02 258.57 860.144 258.474 860.239 258.352C860.335 258.23 860.398 258.087 860.424 257.934L863.781 239.221C863.812 239.046 863.892 238.884 864.011 238.752C864.129 238.621 864.282 238.525 864.452 238.475C864.623 238.426 864.803 238.425 864.974 238.472C865.145 238.52 865.299 238.614 865.419 238.744L878.197 252.788C878.3 252.904 878.431 252.992 878.577 253.044C878.723 253.097 878.879 253.113 879.033 253.09L897.862 250.5C898.039 250.476 898.218 250.503 898.379 250.576C898.541 250.649 898.68 250.765 898.779 250.913C898.878 251.06 898.934 251.232 898.94 251.41C898.946 251.587 898.903 251.763 898.815 251.917L889.418 268.447C889.346 268.583 889.309 268.734 889.309 268.888C889.309 269.042 889.346 269.193 889.418 269.329L897.711 286.452C897.794 286.613 897.828 286.796 897.809 286.976C897.79 287.157 897.719 287.328 897.604 287.47C897.49 287.611 897.337 287.716 897.165 287.772C896.992 287.829 896.807 287.834 896.631 287.787Z" fill="#EEB13D"/>
<path d="M224.41 66.2231L241.311 46.8824C241.449 46.7261 241.546 46.5386 241.595 46.3362C241.643 46.1337 241.642 45.9225 241.59 45.7208L235.224 20.8393C235.166 20.6068 235.175 20.3628 235.248 20.1347C235.321 19.9066 235.456 19.7034 235.638 19.5478C235.82 19.3922 236.042 19.2904 236.279 19.2538C236.515 19.2173 236.758 19.2474 236.978 19.3408L260.594 29.4583C260.781 29.537 260.984 29.5696 261.186 29.5535C261.388 29.5373 261.583 29.4728 261.755 29.3654L283.489 15.5888C283.689 15.4659 283.919 15.3999 284.153 15.3979C284.388 15.3959 284.619 15.458 284.821 15.5775C285.023 15.6971 285.188 15.8695 285.3 16.0762C285.411 16.2828 285.464 16.516 285.452 16.7504L283.129 42.3057C283.102 42.5228 283.131 42.743 283.212 42.946C283.294 43.149 283.425 43.3283 283.593 43.4673L303.341 59.8575C303.524 60.0114 303.66 60.2132 303.735 60.4402C303.81 60.6673 303.821 60.9107 303.765 61.1433C303.71 61.3759 303.591 61.5885 303.421 61.7573C303.252 61.9262 303.039 62.0446 302.806 62.0994L277.809 67.7913C277.608 67.8426 277.422 67.9395 277.265 68.0745C277.108 68.2095 276.984 68.3789 276.903 68.5695L267.424 92.4405C267.337 92.6688 267.188 92.8678 266.993 93.0144C266.797 93.161 266.564 93.2491 266.321 93.2686C266.078 93.2881 265.834 93.238 265.618 93.1244C265.402 93.0107 265.222 92.838 265.101 92.6264L252.009 70.614C251.901 70.4366 251.752 70.288 251.574 70.1808C251.396 70.0736 251.195 70.011 250.987 69.9983L225.293 68.3488C225.055 68.3312 224.826 68.2479 224.633 68.1082C224.44 67.9684 224.289 67.7778 224.197 67.5575C224.106 67.3372 224.077 67.0958 224.115 66.8603C224.152 66.6247 224.254 66.4041 224.41 66.2231Z" fill="#93C2C9"/>
<path d="M1286.63 556.211L1274.46 547.533C1274.36 547.465 1274.24 547.42 1274.12 547.404C1274.01 547.388 1273.88 547.4 1273.77 547.441L1259.69 552.517C1259.56 552.568 1259.42 552.581 1259.28 552.554C1259.14 552.527 1259.01 552.46 1258.91 552.363C1258.81 552.265 1258.73 552.141 1258.7 552.003C1258.67 551.866 1258.67 551.722 1258.72 551.587L1263.26 537.323C1263.29 537.207 1263.3 537.084 1263.28 536.965C1263.25 536.846 1263.2 536.734 1263.13 536.638L1253.95 524.813C1253.88 524.703 1253.83 524.576 1253.83 524.444C1253.82 524.312 1253.84 524.18 1253.9 524.061C1253.96 523.943 1254.05 523.842 1254.16 523.77C1254.27 523.698 1254.4 523.657 1254.53 523.651L1269.51 523.558C1269.63 523.556 1269.75 523.526 1269.85 523.469C1269.96 523.413 1270.05 523.332 1270.12 523.233L1278.52 510.85C1278.6 510.735 1278.71 510.643 1278.84 510.586C1278.96 510.529 1279.1 510.509 1279.24 510.527C1279.38 510.545 1279.51 510.601 1279.62 510.689C1279.73 510.776 1279.81 510.893 1279.86 511.024L1284.57 525.231C1284.61 525.347 1284.68 525.452 1284.76 525.537C1284.85 525.622 1284.96 525.684 1285.07 525.719L1299.45 529.889C1299.59 529.93 1299.71 530.007 1299.8 530.111C1299.89 530.215 1299.95 530.343 1299.97 530.48C1300 530.617 1299.98 530.758 1299.93 530.887C1299.88 531.016 1299.8 531.129 1299.69 531.213L1287.64 540.088C1287.54 540.158 1287.46 540.252 1287.4 540.361C1287.35 540.471 1287.32 540.592 1287.33 540.715L1287.81 555.676C1287.8 555.807 1287.75 555.931 1287.67 556.037C1287.6 556.143 1287.49 556.227 1287.37 556.281C1287.25 556.335 1287.12 556.357 1286.99 556.345C1286.86 556.332 1286.74 556.286 1286.63 556.211Z" fill="#EEB13D"/>
<path d="M223.981 379.821C224.853 379.821 223.319 534.384 223.319 534.384C223.319 537.021 222.553 539.135 221.693 539.1C220.834 539.065 220.16 536.916 220.195 534.28C220.195 534.28 223.122 379.798 223.981 379.821Z" fill="#96C5D6"/>
<path d="M478.91 4.71607C479.572 4.71607 480.885 123.548 480.885 123.548C480.885 125.581 480.374 127.219 479.723 127.207C479.073 127.196 478.562 125.546 478.492 123.525C478.527 123.548 478.248 4.70445 478.91 4.71607Z" fill="#96C5D6"/>
<path d="M587.708 235.12C588.811 235.12 589.345 416.446 589.345 416.446C589.345 419.536 588.428 422.034 587.324 422.011C586.221 421.987 585.326 419.467 585.338 416.377C585.28 416.377 586.546 235.062 587.708 235.12Z" fill="#96C5D6"/>
<path d="M1115.08 273.802C1116.17 273.802 1121.26 425.228 1121.26 425.228C1121.35 427.807 1120.52 429.875 1119.44 429.875C1118.36 429.875 1117.43 427.807 1117.35 425.228C1117.32 425.275 1113.92 273.813 1115.08 273.802Z" fill="#96C5D6"/>
<path d="M968.21 122.177C968.687 122.177 968.965 207.126 968.965 207.126C968.965 208.566 968.57 209.739 968.106 209.728C967.641 209.716 967.246 208.566 967.246 207.091C967.246 207.091 967.734 122.166 968.21 122.177Z" fill="#96C5D6"/>
<path d="M68.5528 482.089C69.2381 482.089 68.0184 605.323 68.0184 605.323C68.0184 607.426 67.4028 609.11 66.7174 609.087C66.0321 609.064 65.5558 607.344 65.5558 605.242C65.5326 605.242 67.8558 482.066 68.5528 482.089Z" fill="#96C5D6"/>
<path d="M834.059 356.229C834.605 356.229 834.93 454.965 834.93 454.965C834.93 456.65 834.489 458.009 833.931 457.997C833.373 457.986 832.932 456.615 832.944 454.93C832.944 454.965 833.501 356.217 834.059 356.229Z" fill="#96C5D6"/>
<path d="M1326.71 589.618C1327.18 589.618 1327.47 674.566 1327.47 674.566C1327.47 676.018 1327.08 677.192 1326.6 677.18C1326.13 677.168 1325.75 676.019 1325.75 674.543C1325.75 674.543 1326.24 589.618 1326.71 589.618Z" fill="#96C5D6"/>
<path d="M756.552 336.842H756.122C755.662 336.762 755.234 336.556 754.885 336.246C754.536 335.936 754.281 335.535 754.147 335.088L749.954 320.951L735.933 316.374C735.487 316.229 735.091 315.962 734.789 315.602C734.487 315.243 734.292 314.806 734.226 314.342C734.156 313.879 734.219 313.406 734.409 312.978C734.598 312.55 734.905 312.185 735.294 311.925L747.433 303.597V288.81C747.435 288.343 747.567 287.885 747.814 287.489C748.061 287.093 748.414 286.774 748.833 286.568C749.252 286.361 749.72 286.276 750.185 286.321C750.65 286.366 751.093 286.54 751.464 286.823L763.115 295.791L777.135 291.237C777.58 291.094 778.056 291.078 778.51 291.191C778.964 291.304 779.377 291.541 779.703 291.876C780.033 292.208 780.261 292.626 780.362 293.083C780.463 293.539 780.432 294.015 780.272 294.455L775.358 308.394L784.024 320.289C784.302 320.665 784.468 321.113 784.5 321.58C784.533 322.047 784.432 322.514 784.21 322.926C783.988 323.345 783.652 323.693 783.241 323.93C782.83 324.166 782.36 324.281 781.886 324.262L767.146 323.878L758.48 335.808C758.26 336.117 757.972 336.372 757.637 336.551C757.303 336.73 756.931 336.83 756.552 336.842ZM738.895 313.61L751.499 317.757C751.885 317.884 752.234 318.102 752.517 318.394C752.8 318.685 753.009 319.04 753.125 319.429L756.9 332.207L764.706 321.462C764.939 321.127 765.253 320.857 765.619 320.676C765.984 320.496 766.39 320.41 766.797 320.428L780.063 320.777L772.257 310.032C772.018 309.7 771.864 309.315 771.807 308.911C771.751 308.506 771.793 308.093 771.931 307.709L776.346 295.198L763.731 299.299C763.341 299.429 762.926 299.462 762.521 299.395C762.117 299.328 761.734 299.164 761.407 298.916L750.872 290.784V304.061C750.87 304.467 750.772 304.867 750.584 305.227C750.396 305.587 750.124 305.896 749.791 306.129L738.895 313.61Z" fill="#2483A4"/>
<path d="M1063.11 654.958L1064.01 641.251C1064.02 641.139 1064 641.026 1063.95 640.923C1063.91 640.819 1063.84 640.729 1063.75 640.659L1052.96 632.145C1052.87 632.063 1052.81 631.958 1052.77 631.843C1052.73 631.727 1052.73 631.604 1052.76 631.486C1052.78 631.368 1052.84 631.259 1052.92 631.171C1053.01 631.082 1053.11 631.018 1053.23 630.983L1066.54 627.591C1066.65 627.567 1066.75 627.516 1066.83 627.443C1066.91 627.37 1066.98 627.277 1067.02 627.173L1071.78 614.279C1071.82 614.157 1071.9 614.049 1072 613.969C1072.1 613.889 1072.22 613.84 1072.35 613.826C1072.48 613.813 1072.61 613.836 1072.73 613.894C1072.84 613.951 1072.94 614.041 1073.01 614.151L1080.34 625.767C1080.4 625.862 1080.48 625.942 1080.58 625.998C1080.68 626.055 1080.78 626.087 1080.9 626.093L1094.63 626.638C1094.76 626.637 1094.89 626.676 1095.01 626.75C1095.12 626.823 1095.21 626.929 1095.26 627.053C1095.32 627.177 1095.33 627.314 1095.31 627.447C1095.28 627.58 1095.22 627.703 1095.13 627.8L1086.34 638.371C1086.27 638.456 1086.22 638.558 1086.2 638.667C1086.17 638.776 1086.18 638.89 1086.21 638.998L1089.92 652.217C1089.96 652.34 1089.96 652.472 1089.93 652.596C1089.9 652.721 1089.83 652.833 1089.73 652.92C1089.64 653.007 1089.52 653.065 1089.39 653.086C1089.27 653.108 1089.14 653.092 1089.02 653.042L1076.24 647.954C1076.13 647.913 1076.02 647.899 1075.91 647.911C1075.8 647.923 1075.69 647.962 1075.6 648.024L1064.18 655.562C1064.08 655.634 1063.95 655.675 1063.82 655.68C1063.7 655.685 1063.57 655.654 1063.46 655.592C1063.35 655.529 1063.26 655.436 1063.2 655.324C1063.13 655.213 1063.11 655.086 1063.11 654.958Z" fill="#93C2C9"/>
<path d="M660.755 428.283L657.816 418.433C657.793 418.353 657.75 418.28 657.691 418.221C657.632 418.162 657.559 418.119 657.479 418.096L647.698 414.937C647.608 414.904 647.529 414.848 647.469 414.774C647.409 414.7 647.37 414.611 647.357 414.516C647.343 414.422 647.356 414.325 647.394 414.238C647.432 414.15 647.493 414.074 647.571 414.019L656.027 408.211C656.096 408.162 656.152 408.098 656.19 408.023C656.228 407.948 656.248 407.865 656.248 407.781V397.512C656.245 397.416 656.27 397.32 656.319 397.237C656.369 397.153 656.441 397.086 656.528 397.042C656.614 396.998 656.711 396.98 656.808 396.989C656.904 396.998 656.996 397.035 657.073 397.094L665.204 403.332C665.267 403.385 665.344 403.42 665.425 403.434C665.507 403.449 665.59 403.441 665.668 403.413L675.437 400.231C675.528 400.199 675.626 400.194 675.719 400.215C675.813 400.237 675.899 400.284 675.967 400.352C676.034 400.42 676.082 400.506 676.103 400.599C676.125 400.693 676.119 400.79 676.088 400.881L672.673 410.581C672.643 410.657 672.634 410.741 672.646 410.822C672.659 410.903 672.692 410.98 672.743 411.045L678.794 419.351C678.85 419.429 678.883 419.521 678.889 419.617C678.896 419.713 678.876 419.809 678.831 419.894C678.787 419.979 678.72 420.051 678.638 420.1C678.555 420.15 678.461 420.176 678.365 420.175L668.096 419.92C668.012 419.919 667.929 419.939 667.854 419.978C667.779 420.016 667.715 420.072 667.666 420.14L661.638 428.458C661.579 428.529 661.502 428.583 661.415 428.614C661.328 428.645 661.235 428.652 661.144 428.634C661.054 428.616 660.97 428.574 660.901 428.512C660.833 428.451 660.782 428.371 660.755 428.283Z" fill="#EEB13D"/>
<path d="M11.6858 758.55L8.75853 751.674C8.73115 751.62 8.69178 751.573 8.64345 751.537C8.59512 751.501 8.53911 751.476 8.47975 751.465L1.16165 749.989C1.09463 749.973 1.03322 749.939 0.983865 749.891C0.934513 749.843 0.899052 749.783 0.881217 749.716C0.863381 749.649 0.863832 749.579 0.88252 749.513C0.901207 749.447 0.937441 749.386 0.987405 749.339L6.60957 744.425C6.65439 744.385 6.68923 744.334 6.71138 744.278C6.73354 744.221 6.74242 744.16 6.73734 744.1L5.87776 736.678C5.87046 736.609 5.8823 736.54 5.91196 736.478C5.94161 736.416 5.98791 736.363 6.04571 736.326C6.10351 736.289 6.17054 736.268 6.23933 736.266C6.30811 736.265 6.37597 736.283 6.43533 736.317L12.8474 740.151C12.901 740.179 12.9609 740.194 13.0216 740.194C13.0824 740.194 13.1422 740.179 13.1959 740.151L19.9912 737.038C20.0555 737.011 20.1257 737.002 20.1945 737.012C20.2632 737.023 20.3279 737.051 20.3816 737.096C20.4353 737.14 20.476 737.198 20.4993 737.263C20.5226 737.329 20.5277 737.399 20.514 737.467L18.8529 744.751C18.837 744.809 18.8361 744.871 18.8503 744.929C18.8646 744.988 18.8934 745.043 18.9342 745.088L23.9988 750.582C24.0432 750.635 24.0725 750.698 24.0838 750.766C24.0951 750.834 24.0879 750.904 24.063 750.968C24.038 751.032 23.9962 751.088 23.942 751.131C23.8878 751.173 23.8231 751.2 23.7548 751.209L16.309 751.871C16.2499 751.879 16.1933 751.9 16.1431 751.932C16.0929 751.964 16.0504 752.007 16.0186 752.057L12.3595 758.574C12.3245 758.633 12.2741 758.682 12.2136 758.716C12.1531 758.749 12.0847 758.765 12.0157 758.763C11.9467 758.76 11.8796 758.739 11.8215 758.702C11.7635 758.665 11.7166 758.612 11.6858 758.55Z" fill="#EEB13D"/>
<path d="M398.916 368.554L390.878 359.842C390.813 359.772 390.733 359.72 390.644 359.69C390.555 359.66 390.459 359.652 390.366 359.667L378.623 361.352C378.513 361.364 378.402 361.347 378.302 361.301C378.202 361.256 378.116 361.184 378.054 361.093C377.992 361.002 377.955 360.896 377.949 360.786C377.943 360.676 377.967 360.566 378.019 360.469L383.827 350.142C383.87 350.055 383.892 349.96 383.892 349.863C383.892 349.767 383.87 349.671 383.827 349.585L378.599 338.956C378.55 338.857 378.529 338.747 378.539 338.637C378.549 338.527 378.589 338.422 378.656 338.334C378.722 338.245 378.812 338.178 378.915 338.138C379.018 338.098 379.13 338.088 379.238 338.108L390.854 340.431C390.948 340.448 391.045 340.442 391.136 340.414C391.227 340.386 391.309 340.336 391.377 340.269L399.88 332.021C399.959 331.945 400.057 331.892 400.164 331.869C400.272 331.845 400.383 331.852 400.487 331.888C400.59 331.924 400.682 331.988 400.751 332.073C400.82 332.158 400.865 332.261 400.879 332.37L402.261 344.137C402.271 344.233 402.305 344.324 402.36 344.404C402.414 344.483 402.489 344.547 402.575 344.59L413.029 350.119C413.127 350.17 413.208 350.247 413.265 350.341C413.322 350.435 413.352 350.543 413.352 350.653C413.352 350.763 413.322 350.871 413.265 350.965C413.208 351.059 413.127 351.136 413.029 351.188L402.261 356.136C402.174 356.177 402.098 356.239 402.039 356.316C401.98 356.393 401.941 356.482 401.924 356.577L399.903 368.252C399.881 368.354 399.831 368.449 399.76 368.526C399.689 368.604 399.598 368.66 399.498 368.691C399.397 368.722 399.29 368.725 399.188 368.701C399.086 368.677 398.992 368.626 398.916 368.554Z" fill="#2483A4"/>
<path d="M1276.65 742.927L1273.71 736.062C1273.68 736.006 1273.65 735.957 1273.6 735.918C1273.55 735.88 1273.5 735.853 1273.44 735.841L1266.11 734.366C1266.04 734.354 1265.98 734.323 1265.93 734.276C1265.87 734.228 1265.84 734.167 1265.82 734.099C1265.8 734.032 1265.81 733.96 1265.83 733.894C1265.85 733.828 1265.89 733.77 1265.95 733.727L1271.57 728.802C1271.61 728.763 1271.65 728.715 1271.67 728.66C1271.69 728.606 1271.7 728.547 1271.7 728.488L1270.83 721.065C1270.82 720.996 1270.83 720.925 1270.86 720.862C1270.89 720.799 1270.94 720.745 1271 720.707C1271.06 720.669 1271.13 720.647 1271.2 720.645C1271.27 720.642 1271.33 720.659 1271.4 720.694L1277.81 724.527C1277.86 724.555 1277.92 724.57 1277.98 724.57C1278.04 724.57 1278.1 724.555 1278.16 724.527L1284.94 721.414C1285 721.384 1285.07 721.372 1285.14 721.38C1285.21 721.388 1285.28 721.415 1285.33 721.459C1285.39 721.503 1285.43 721.561 1285.45 721.627C1285.47 721.693 1285.48 721.764 1285.46 721.832L1283.8 729.115C1283.79 729.175 1283.79 729.236 1283.81 729.295C1283.83 729.353 1283.85 729.407 1283.89 729.452L1288.95 734.947C1289 734.998 1289.03 735.062 1289.04 735.131C1289.06 735.2 1289.05 735.272 1289.02 735.338C1289 735.403 1288.96 735.461 1288.9 735.502C1288.84 735.544 1288.77 735.569 1288.7 735.574L1281.27 736.248C1281.21 736.252 1281.15 736.271 1281.1 736.303C1281.05 736.336 1281.01 736.381 1280.98 736.433L1277.31 742.938C1277.28 743.003 1277.23 743.057 1277.17 743.095C1277.11 743.133 1277.04 743.152 1276.97 743.151C1276.9 743.15 1276.83 743.128 1276.78 743.088C1276.72 743.048 1276.67 742.992 1276.65 742.927Z" fill="#2483A4"/>
<path d="M145.988 655.4L152.377 646.235C152.428 646.159 152.461 646.072 152.473 645.982C152.485 645.891 152.476 645.799 152.447 645.712L148.521 635.258C148.483 635.16 148.474 635.054 148.494 634.951C148.514 634.849 148.563 634.754 148.634 634.678C148.706 634.601 148.797 634.547 148.898 634.52C148.999 634.493 149.106 634.495 149.206 634.526L159.893 637.767C159.979 637.796 160.071 637.803 160.16 637.787C160.25 637.77 160.333 637.732 160.404 637.674L169.139 630.704C169.221 630.639 169.319 630.598 169.423 630.586C169.527 630.574 169.632 630.591 169.726 630.636C169.821 630.681 169.901 630.751 169.957 630.839C170.014 630.927 170.044 631.03 170.045 631.134L170.266 642.309C170.267 642.398 170.29 642.486 170.332 642.565C170.375 642.644 170.436 642.711 170.51 642.762L179.802 648.918C179.888 648.976 179.956 649.057 179.998 649.151C180.04 649.245 180.056 649.349 180.042 649.451C180.029 649.554 179.988 649.65 179.923 649.731C179.858 649.811 179.772 649.871 179.675 649.906L169.116 653.565C169.031 653.596 168.955 653.647 168.894 653.713C168.834 653.78 168.79 653.861 168.767 653.948L165.794 664.716C165.766 664.817 165.711 664.909 165.634 664.98C165.557 665.052 165.461 665.1 165.358 665.119C165.255 665.139 165.149 665.129 165.051 665.09C164.953 665.052 164.868 664.986 164.806 664.902L158.069 655.992C158.014 655.919 157.941 655.861 157.858 655.823C157.775 655.784 157.684 655.767 157.593 655.772L146.441 656.271C146.341 656.27 146.242 656.241 146.156 656.188C146.071 656.135 146.001 656.06 145.954 655.971C145.908 655.882 145.887 655.781 145.893 655.681C145.899 655.58 145.932 655.483 145.988 655.4Z" fill="#EEB13D"/>
<path d="M945.04 444.674C947.356 444.674 949.233 442.796 949.233 440.48C949.233 438.164 947.356 436.287 945.04 436.287C942.724 436.287 940.847 438.164 940.847 440.48C940.847 442.796 942.724 444.674 945.04 444.674Z" fill="#2483A4"/>
<path d="M1078.53 111.154L1063.77 108.726C1063.65 108.708 1063.52 108.718 1063.41 108.757C1063.29 108.795 1063.19 108.86 1063.1 108.947L1052.73 119.738C1052.64 119.84 1052.51 119.913 1052.38 119.948C1052.24 119.984 1052.1 119.98 1051.96 119.937C1051.83 119.895 1051.71 119.815 1051.62 119.708C1051.53 119.601 1051.47 119.47 1051.45 119.332L1049.13 104.533C1049.11 104.414 1049.07 104.301 1049 104.204C1048.92 104.107 1048.83 104.028 1048.72 103.975L1035.25 97.4469C1035.12 97.3858 1035.02 97.2908 1034.94 97.1727C1034.87 97.0546 1034.83 96.9182 1034.83 96.779C1034.83 96.6398 1034.87 96.5034 1034.94 96.3853C1035.02 96.2672 1035.12 96.1722 1035.25 96.1111L1048.63 89.3854C1048.74 89.3312 1048.83 89.2509 1048.91 89.1516C1048.98 89.0524 1049.02 88.9372 1049.04 88.8162L1051.19 73.9942C1051.21 73.8559 1051.26 73.7258 1051.35 73.6184C1051.44 73.5111 1051.56 73.4306 1051.69 73.3861C1051.83 73.3415 1051.97 73.3346 1052.1 73.3661C1052.24 73.3976 1052.36 73.4662 1052.46 73.5644L1062.99 84.2163C1063.07 84.3024 1063.18 84.3664 1063.29 84.4029C1063.41 84.4393 1063.53 84.447 1063.65 84.4254L1078.38 81.7885C1078.52 81.7655 1078.66 81.7808 1078.79 81.8328C1078.92 81.8848 1079.03 81.9715 1079.11 82.0832C1079.19 82.195 1079.24 82.3275 1079.26 82.4662C1079.27 82.6048 1079.24 82.7442 1079.18 82.8688L1072.3 96.1692C1072.25 96.2774 1072.22 96.3967 1072.22 96.5177C1072.22 96.6387 1072.25 96.758 1072.3 96.8661L1079.36 110.062C1079.43 110.188 1079.46 110.333 1079.45 110.479C1079.44 110.625 1079.39 110.764 1079.3 110.881C1079.22 110.997 1079.1 111.085 1078.96 111.134C1078.82 111.182 1078.67 111.189 1078.53 111.154Z" fill="#EEB13D"/>
</g>
<defs>
<clipPath id="clip0_2918_1048">
<rect width="1342.76" height="758.771" fill="white"/>
</clipPath>
</defs>
</svg>
